<?xml version="1.0" standalone="no"?><!DOCTYPE svg PUBLIC "-//W3C//DTD SVG 1.1//EN" "http://www.w3.org/Graphics/SVG/1.1/DTD/svg11.dtd"><svg t="1592751040210" class="icon" viewBox="0 0 1024 1024" version="1.1" xmlns="http://www.w3.org/2000/svg" p-id="2023" xmlns:xlink="http://www.w3.org/1999/xlink" width="200" height="200"><defs><style type="text/css"></style></defs><path d="M733.681778 633.073778a444.970667 444.970667 0 0 0-99.370667-43.349334c99.2-52.565333 166.968889-156.856889 166.968889-276.721777C801.28 140.416 660.864 0 488.263111 0S175.246222 140.416 175.246222 313.002667c0 125.312 74.055111 233.6 180.664889 283.562666-172.956444 61.738667-297.116444 227.128889-297.116444 421.048889h55.352889c0-215.936 175.658667-391.594667 391.594666-391.594666 70.414222 0 139.463111 18.901333 199.68 54.656l28.259556-47.601778zM230.599111 313.002667c0-142.08 115.584-257.664 257.664-257.664s257.664 115.584 257.664 257.664c0 142.065778-115.584 257.649778-257.664 257.649777s-257.664-115.569778-257.664-257.649777zM973.852444 850.161778h-118.499555v-118.485334H800v118.485334h-118.485333v55.352889h118.485333V1024h55.352889v-118.485333h118.499555z" p-id="2024"></path></svg>