<?xml version="1.0" standalone="no"?><!DOCTYPE svg PUBLIC "-//W3C//DTD SVG 1.1//EN" "http://www.w3.org/Graphics/SVG/1.1/DTD/svg11.dtd"><svg t="1594484472525" class="icon" viewBox="0 0 1024 1024" version="1.1" xmlns="http://www.w3.org/2000/svg" p-id="11086" width="512" height="512" xmlns:xlink="http://www.w3.org/1999/xlink"><defs><style type="text/css"></style></defs><path d="M513.178718 375.999777m-375.999777 0a375.999777 375.999777 0 1 0 751.999555 0 375.999777 375.999777 0 1 0-751.999555 0Z" fill="#FDBF5E" p-id="11087"></path><path d="M969.178711 1009.599507v-142.399064c0-88.00065-63.999348-172.800301-171.199802-225.600279l-116.799325-63.999348-168.000866 131.199695-166.400366-131.199695-116.799326 63.999348c-108.800954 52.799978-172.800301 137.599629-172.800301 225.600279v142.399064h911.999986z" fill="#2EA2DB" p-id="11088"></path><path d="M969.178711 1023.999876H57.178725a14.340556 14.340556 0 0 1-14.400369-14.400369v-142.399064c0-94.400585 67.200346-183.999672 179.200236-238.400148l116.799326-63.999348c4.799435-3.200999 11.19937-1.600499 16.000868 1.600499l156.799433 123.19926 156.799433-123.19926c4.799435-3.200999 11.19937-4.799435 16.000868-1.600499l116.799326 63.999348c111.99989 56.000976 179.200236 143.999564 179.200236 238.400148v142.399064c3.200999 8.000434-3.198936 14.400369-11.199371 14.400369z m-895.999118-30.401237h880.000313V867.198381c0-83.199152-60.800412-161.600931-163.199368-212.80041l-108.798891-59.199912-158.399933 124.799759c-4.799435 4.799435-12.79987 4.799435-19.199804 0l-158.399933-124.799759-108.800953 59.199912c-102.398956 51.199478-163.199368 131.199694-163.199368 212.80041v126.400258z" fill="#193651" p-id="11089"></path><path d="M700.379388 313.598866c0 102.398956-84.799651 263.999888-190.399606 263.999888s-190.399606-161.600931-190.399606-263.999888 84.799651-193.600605 190.399606-193.600605 190.399606 89.601149 190.399606 193.600605z" fill="#FFFFFF" p-id="11090"></path><path d="M509.979782 591.999123c-116.799325 0-204.799975-169.599303-204.799975-278.400257 0-113.600389 94.400585-207.998911 204.799975-207.998911 111.99989 0 204.799975 95.999022 204.799975 207.998911 0 108.800954-88.00065 278.400256-204.799975 278.400257z m0-457.59843c-94.400585 0-175.999238 81.600715-175.999237 177.599737s80.000216 249.599519 175.999237 249.599518 175.999238-153.600497 175.999238-249.599518-81.600715-177.599737-175.999238-177.599737z" fill="#193651" p-id="11091"></path><path d="M548.379391 102.398956c-81.600715-17.599305-120.000324 25.599739-124.79976 38.399609-1.600499 1.600499-4.799435 3.200999-6.399934 3.200999-120.000324-27.200238-97.599521 168.000866-97.599521 168.000866 0 31.999674 8.000434 68.800846 22.400803 105.599955 0-28.800738 3.200999-155.198934 68.800845-135.99913 0 0 80.000216 62.400911 188.799107 1.600499 0 0 68.800846-27.200238 80.000216 131.199694 12.797807-35.200673 107.198392-257.602015-131.201756-312.002492z" fill="#F16051" p-id="11092"></path><path d="M341.978916 433.59919c-6.399935 0-11.19937-3.200999-14.400369-9.600933-14.400369-38.399609-23.99924-76.799217-23.999239-110.399391-1.600499-12.79987-12.79987-121.600823 36.799109-166.400366 19.199804-16.000868 41.600607-22.400803 70.399282-17.599305 14.400369-23.99924 60.800412-59.199912 139.200129-41.600607 73.600281 16.000868 124.799759 51.199478 151.999997 100.800519 30.399175 57.599413 28.800738 134.400693-8.000434 227.200778l-1.600499 3.200999c-3.200999 8.000434-11.19937 11.19937-19.199804 8.000434-8.000434-3.200999-11.19937-11.19937-8.000435-19.199804l1.6005-3.200999c31.999674-84.799651 35.200673-153.600497 9.600933-203.199476-22.400803-41.600607-67.200346-70.399283-131.199694-84.799651-71.999782-16.000868-103.999456 22.400803-107.200454 28.800737-1.600499 3.200999-3.200999 6.399935-6.399935 8.000435-1.600499 1.600499-4.799435 1.600499-6.399935 3.200998-4.799435 3.200999-8.000434 4.799435-12.799869 3.200999-22.400803-4.799435-38.399609-1.600499-51.199478 9.600933-33.600173 30.399175-31.999674 111.99989-27.200239 140.800628v1.600499c0 28.800738 8.000434 65.599847 20.800304 99.20002 3.200999 8.000434 0 16.000868-8.000434 19.199805-1.598437 3.192749-3.198936 3.192749-4.799436 3.192748z" fill="#193651" p-id="11093"></path><path d="M325.98011 772.799858h374.399278v235.19915H325.98011z" fill="#E1E6E9" p-id="11094"></path><path d="M700.379388 1023.999876H325.98011a14.340556 14.340556 0 0 1-14.400368-14.400369V772.799858a14.340556 14.340556 0 0 1 14.400368-14.400369h374.399278a14.340556 14.340556 0 0 1 14.400369 14.400369v235.19915c1.598437 9.600933-4.801498 16.000868-14.400369 16.000868z m-358.400472-30.401237h344.000104v-204.799975H341.978916v204.799975z" fill="#193651" p-id="11095"></path><path d="M384.218898 831.360396h257.599953v118.399824H384.218898z" fill="#FFFFFF" p-id="11096"></path><path d="M700.379388 935.999226h76.799218v73.600281h-76.799218z" fill="#E1E6E9" p-id="11097"></path><path d="M777.178606 1023.999876h-76.799218a14.340556 14.340556 0 0 1-14.400368-14.400369v-73.600281a14.340556 14.340556 0 0 1 14.400368-14.400369h76.799218a14.340556 14.340556 0 0 1 14.400369 14.400369v73.600281a14.340556 14.340556 0 0 1-14.400369 14.400369z m-62.398849-30.401237h46.400043V950.399595H714.779757v43.199044z" fill="#193651" p-id="11098"></path><path d="M249.178831 935.999226h76.799217v73.600281h-76.799217z" fill="#E1E6E9" p-id="11099"></path><path d="M325.98011 1023.999876h-76.799217a14.340556 14.340556 0 0 1-14.400369-14.400369v-73.600281a14.340556 14.340556 0 0 1 14.400369-14.400369h76.799217a14.340556 14.340556 0 0 1 14.400369 14.400369v73.600281c1.598437 8.000434-4.801498 14.400369-14.400369 14.400369z m-60.800411-30.401237h46.400043V950.399595h-46.400043v43.199044zM418.778133 876.799314h30.399175v28.800738h-30.399175zM498.778349 876.799314h30.399175v28.800738h-30.399175zM577.178066 876.799314h30.399175v28.800738h-30.399175z" fill="#193651" p-id="11100"></path></svg>