<?xml version="1.0" standalone="no"?><!DOCTYPE svg PUBLIC "-//W3C//DTD SVG 1.1//EN" "http://www.w3.org/Graphics/SVG/1.1/DTD/svg11.dtd"><svg t="1592750077163" class="icon" viewBox="0 0 1024 1024" version="1.1" xmlns="http://www.w3.org/2000/svg" p-id="1391" xmlns:xlink="http://www.w3.org/1999/xlink" width="200" height="200"><defs><style type="text/css"></style></defs><path d="M249.709714 615.424a146.285714 146.285714 0 1 1 29.915429-43.227429l172.178286 172.178286c10.752-4.900571 22.235429-8.484571 34.230857-10.678857V290.377143a146.285714 146.285714 0 1 1 146.066285-60.489143l162.084572 162.084571a146.285714 146.285714 0 1 1-36.571429 36.571429L595.529143 266.386286a145.554286 145.554286 0 0 1-57.782857 23.917714v443.392a146.285714 146.285714 0 1 1-129.170286 40.594286L249.709714 615.424zM512 219.428571a73.142857 73.142857 0 1 0 0-146.285714 73.142857 73.142857 0 0 0 0 146.285714z m365.714286 365.714286a73.142857 73.142857 0 1 0 0-146.285714 73.142857 73.142857 0 0 0 0 146.285714z m-365.714286 365.714286a73.142857 73.142857 0 1 0 0-146.285714 73.142857 73.142857 0 0 0 0 146.285714zM146.285714 585.142857a73.142857 73.142857 0 1 0 0-146.285714 73.142857 73.142857 0 0 0 0 146.285714z" p-id="1392"></path></svg>