<?xml version="1.0" standalone="no"?><!DOCTYPE svg PUBLIC "-//W3C//DTD SVG 1.1//EN" "http://www.w3.org/Graphics/SVG/1.1/DTD/svg11.dtd"><svg t="1592750102046" class="icon" viewBox="0 0 1024 1024" version="1.1" xmlns="http://www.w3.org/2000/svg" p-id="1883" xmlns:xlink="http://www.w3.org/1999/xlink" width="200" height="200"><defs><style type="text/css"></style></defs><path d="M636.562286 622.445714L421.229714 407.259429a131.803429 131.803429 0 0 0-186.514285 0L73.142857 568.832V73.142857h877.494857v508.050286l-42.642285-42.642286a132.461714 132.461714 0 0 0-187.392 0L636.562286 622.445714z m314.002285 314.148572L688.274286 674.230857l73.874285-73.947428a73.581714 73.581714 0 0 1 104.082286 0l84.333714 84.333714v251.977143zM73.142857 672.182857l203.556572-203.556571a72.557714 72.557714 0 0 1 102.546285 0l482.011429 482.011428H73.142857V672.182857zM73.435429 0C32.914286 0 0 32.914286 0 73.435429v876.836571c0 40.594286 32.914286 73.508571 73.435429 73.508571h876.836571c40.521143 0 73.435429-32.914286 73.435429-73.508571V73.435429C1023.707429 32.914286 990.793143 0 950.272 0H73.435429z" p-id="1884"></path></svg>