<?xml version="1.0" standalone="no"?><!DOCTYPE svg PUBLIC "-//W3C//DTD SVG 1.1//EN" "http://www.w3.org/Graphics/SVG/1.1/DTD/svg11.dtd"><svg t="1592750558824" class="icon" viewBox="0 0 1033 1024" version="1.1" xmlns="http://www.w3.org/2000/svg" p-id="1866" xmlns:xlink="http://www.w3.org/1999/xlink" width="201.7578125" height="200"><defs><style type="text/css"></style></defs><path d="M963.095273 982.690909 78.731636 982.690909c-39.726545 0-78.731636-37.166545-78.731636-75.054545L0 256c0-39.889455 40.866909-64.581818 78.731636-64.581818l884.363636 0c37.562182 0 60.904727 24.738909 60.904727 64.581818l0 651.636364C1024 951.831273 998.958545 982.690909 963.095273 982.690909zM78.731636 237.963636c-15.941818 0-32.186182 9.099636-32.186182 18.036364l0 651.636364c0 11.985455 18.641455 28.509091 32.186182 28.509091l884.363636 0c11.776 0 14.359273-20.573091 14.359273-28.509091L977.454545 256c0-18.036364-6.330182-18.036364-14.359273-18.036364L78.731636 237.963636z" p-id="1867"></path><path d="M116.363636 400.872727l814.545455 0 0 46.545455-814.545455 0 0-46.545455Z" p-id="1868"></path><path d="M907.636364 749.963636l-279.272727 0 0-186.181818 279.272727 0L907.636364 749.963636zM674.909091 703.418182l186.181818 0 0-93.090909-186.181818 0L674.909091 703.418182z" p-id="1869"></path></svg>