<?xml version="1.0" standalone="no"?><!DOCTYPE svg PUBLIC "-//W3C//DTD SVG 1.1//EN" "http://www.w3.org/Graphics/SVG/1.1/DTD/svg11.dtd"><svg t="1598670798380" class="icon" viewBox="0 0 1024 1024" version="1.1" xmlns="http://www.w3.org/2000/svg" p-id="1179" xmlns:xlink="http://www.w3.org/1999/xlink" width="200" height="200"><defs><style type="text/css"></style></defs><path d="M505.856 134.464c104.896 0 190.272 81.984 190.272 182.08 0 12.48-1.408 25.024-3.584 36.8-4.352 18.752 8.704 37.504 28.16 41.024 19.52 4.16 38.4-8.32 42.688-27.136 3.648-16.704 5.056-33.344 5.056-50.688 0-138.304-117.952-251.584-262.656-251.584-144 0-261.952 113.28-261.952 251.584 0 84.032 43.456 159.104 110.016 204.992C354.688 522.176 356.096 522.88 357.568 524.224c-1.408 0-2.88 0.704-4.352 1.344-169.28 59.84-290.112 216.128-290.112 399.616C63.04 944 78.976 960 99.264 960s36.16-16 36.16-34.752c0-166.144 118.656-305.792 278.592-345.344 3.648-0.768 7.232-2.112 10.816-2.816 0.768 0 1.472 0 2.944-0.704 7.232-2.752 14.464-7.616 18.816-13.888 8.704-9.088 12.992-20.864 12.992-33.344 0-9.728-2.88-18.752-7.936-26.432C447.232 495.04 440.064 488.832 432.064 484.608 430.656 483.968 428.416 482.56 427.008 482.56 361.856 454.08 316.288 390.144 316.288 316.48 316.288 216.448 401.664 134.464 505.856 134.464zM736 512C612.288 512 512 612.288 512 736S612.288 960 736 960s224-100.288 224-224S859.712 512 736 512zM736 896C647.616 896 576 824.384 576 736S647.616 576 736 576s160 71.616 160 160S824.384 896 736 896zM800 704l-128 0c-17.664 0-32 14.336-32 32s14.336 32 32 32l128 0c17.664 0 32-14.336 32-32S817.664 704 800 704z" p-id="1180"></path></svg>