<?xml version="1.0" standalone="no"?><!DOCTYPE svg PUBLIC "-//W3C//DTD SVG 1.1//EN" "http://www.w3.org/Graphics/SVG/1.1/DTD/svg11.dtd"><svg t="1592749822527" class="icon" viewBox="0 0 1024 1024" version="1.1" xmlns="http://www.w3.org/2000/svg" p-id="1408" xmlns:xlink="http://www.w3.org/1999/xlink" width="200" height="200"><defs><style type="text/css"></style></defs><path d="M609.1 922.6H119.4c-43.9 0-78.3-50.6-78.3-115.2V395.2c0-10.9 8.8-19.8 19.8-19.8s19.8 8.8 19.8 19.8v412.2c0 43.3 20.5 75.7 38.8 75.7h489.7c10.9 0 19.8 8.8 19.8 19.8s-8.9 19.7-19.9 19.7zM880.6 610.9c-10.9 0-19.8-8.8-19.8-19.8V160.2c0-43.3-20.5-75.7-38.8-75.7H119.4c-18.3 0-38.8 32.4-38.8 75.7V268c0 10.9-8.8 19.8-19.8 19.8S41 279 41 268V160.2C41.2 95.6 75.5 45 119.4 45H822c43.9 0 78.3 50.6 78.3 115.2v430.9c0.1 10.9-8.8 19.8-19.7 19.8zM849.7 962.4c-13.1 0-26.1-4.7-36.5-14.1L640.4 791.4c-9.7-8.8-15.8-20.7-17.4-33.7l-12-99.8c-1.9-15.6 3.1-31.3 13.7-42.9 10.6-11.6 25.7-18.1 41.4-17.8l94.1 2c13.5 0.3 26.4 5.6 36.2 14.9l0.4 0.4 167.8 169.3c10.7 10.3 16.6 24 16.7 38.8 0.1 14.7-5.6 28.4-16 38.7L887.4 947c-10.5 10.3-24.1 15.4-37.7 15.4zM664.9 636.8c-5.6 0-9.2 3-10.9 4.8-1.7 1.9-4.4 5.8-3.7 11.6l12 99.8c0.4 3.5 2.1 6.8 4.7 9.1L839.8 919c5.6 5.1 14.2 5.1 19.8 0l77.8-85.6c2.9-2.8 4.5-6.6 4.5-10.6s-1.6-7.8-4.6-10.6l-0.4-0.4-167.8-169.1c-2.6-2.4-6.1-3.8-9.6-3.9l-94.1-2h-0.5z" p-id="1409"></path><path d="M770.4 308.2h-579c-10.9 0-19.8-8.8-19.8-19.8s8.8-19.8 19.8-19.8h579c10.9 0 19.8 8.8 19.8 19.8s-8.9 19.8-19.8 19.8zM770.4 503.6h-579c-10.9 0-19.8-8.8-19.8-19.8 0-10.9 8.8-19.8 19.8-19.8h579c10.9 0 19.8 8.8 19.8 19.8-0.1 10.9-8.9 19.8-19.8 19.8zM513.1 698.9H191.4c-10.9 0-19.8-8.8-19.8-19.8s8.8-19.8 19.8-19.8H513c10.9 0 19.8 8.8 19.8 19.8s-8.8 19.8-19.7 19.8z" p-id="1410"></path></svg>