<?xml version="1.0" standalone="no"?><!DOCTYPE svg PUBLIC "-//W3C//DTD SVG 1.1//EN" "http://www.w3.org/Graphics/SVG/1.1/DTD/svg11.dtd"><svg t="1596961365894" class="icon" viewBox="0 0 1024 1024" version="1.1" xmlns="http://www.w3.org/2000/svg" p-id="2205" xmlns:xlink="http://www.w3.org/1999/xlink" width="512" height="512"><defs><style type="text/css"></style></defs><path d="M512 546.133333c-3.413333 0-10.24 0-13.653333-3.413333l-443.733334-204.8C40.96 331.093333 34.133333 320.853333 34.133333 307.2s6.826667-23.893333 20.48-30.72l443.733334-204.8c10.24-3.413333 20.48-3.413333 27.306666 0l443.733334 204.8c13.653333 6.826667 20.48 17.066667 20.48 30.72s-6.826667 23.893333-20.48 30.72l-443.733334 204.8c-3.413333 3.413333-10.24 3.413333-13.653333 3.413333zM150.186667 307.2L512 474.453333 873.813333 307.2 512 139.946667 150.186667 307.2z" p-id="2206"></path><path d="M512 750.933333c-3.413333 0-10.24 0-13.653333-3.413333l-443.733334-204.8c-17.066667-6.826667-23.893333-27.306667-17.066666-44.373333 6.826667-17.066667 27.306667-23.893333 44.373333-17.066667L512 679.253333l430.08-197.973333c17.066667-6.826667 37.546667 0 44.373333 17.066667 6.826667 17.066667 0 37.546667-17.066666 44.373333l-443.733334 204.8c-3.413333 3.413333-10.24 3.413333-13.653333 3.413333z" p-id="2207"></path><path d="M512 955.733333c-3.413333 0-10.24 0-13.653333-3.413333l-443.733334-204.8c-17.066667-6.826667-23.893333-27.306667-17.066666-44.373333 6.826667-17.066667 27.306667-23.893333 44.373333-17.066667L512 884.053333l430.08-197.973333c17.066667-6.826667 37.546667 0 44.373333 17.066667 6.826667 17.066667 0 37.546667-17.066666 44.373333l-443.733334 204.8c-3.413333 3.413333-10.24 3.413333-13.653333 3.413333z" p-id="2208"></path></svg>