<?xml version="1.0" standalone="no"?><!DOCTYPE svg PUBLIC "-//W3C//DTD SVG 1.1//EN" "http://www.w3.org/Graphics/SVG/1.1/DTD/svg11.dtd"><svg t="1592750327230" class="icon" viewBox="0 0 1024 1024" version="1.1" xmlns="http://www.w3.org/2000/svg" p-id="1595" xmlns:xlink="http://www.w3.org/1999/xlink" width="200" height="200"><defs><style type="text/css"></style></defs><path d="M807.3856 255.9744 216.5888 255.9744c-16.3328 0-29.5424-14.336-29.5424-32.0256 0-17.664 13.2608-32.0256 29.5424-32.0256l590.7968 0c16.3328 0 29.5424 14.336 29.5424 32.0256C836.928 241.6896 823.6672 255.9744 807.3856 255.9744M777.8176 896c0 35.3536-26.4704 64-59.0592 64L305.2416 960c-32.6144 0-59.0592-28.672-59.0592-64L246.1824 320l531.6864 0L777.8688 896 777.8176 896zM423.3856 95.9744c0-17.6896 13.2608-32.0256 29.5424-32.0256l118.144 0c16.3328 0 29.5424 14.336 29.5424 32.0256L600.6144 128l-177.2032 0C423.3856 128 423.3856 95.9744 423.3856 95.9744zM836.928 128l-177.2544 0L659.6736 64c0-35.3536-26.4704-64-59.0592-64l-177.2032 0c-32.6144 0-59.0592 28.672-59.0592 64L364.352 128 187.0464 128C154.4576 128 127.9872 156.672 127.9872 191.9744l0 64c0 35.3024 26.4192 64 59.0592 64l0 575.9744c0 70.6816 52.9152 128 118.1696 128l413.4912 0c65.2544 0 118.1696-57.344 118.1696-128L836.8768 320C869.5168 320 895.9872 291.328 895.9872 256l0-64C895.9872 156.672 869.5168 128 836.928 128M511.9872 896c16.3328 0 29.5424-14.336 29.5424-32.0256l0-384c0-17.664-13.2608-32.0256-29.5424-32.0256-16.2816 0-29.5424 14.336-29.5424 32.0256l0 384C482.4448 881.664 495.7056 896 511.9872 896M364.2752 896c16.3328 0 29.5424-14.336 29.5424-32.0256l0-384c0-17.664-13.2608-32.0256-29.5424-32.0256s-29.5424 14.336-29.5424 32.0256l0 384C334.7328 881.664 347.9936 896 364.2752 896M659.6736 896c16.3328 0 29.5424-14.336 29.5424-32.0256l0-384c0-17.664-13.2608-32.0256-29.5424-32.0256s-29.5424 14.336-29.5424 32.0256l0 384C630.1312 881.664 643.392 896 659.6736 896" p-id="1596"></path></svg>