<?xml version="1.0" standalone="no"?><!DOCTYPE svg PUBLIC "-//W3C//DTD SVG 1.1//EN" "http://www.w3.org/Graphics/SVG/1.1/DTD/svg11.dtd"><svg t="1592749206892" class="icon" viewBox="0 0 1024 1024" version="1.1" xmlns="http://www.w3.org/2000/svg" p-id="1744" xmlns:xlink="http://www.w3.org/1999/xlink" width="200" height="200"><defs><style type="text/css"></style></defs><path d="M861.001568 138.1142H783.237716A140.597044 140.597044 0 0 0 641.396451 0.005599H387.575238a140.597044 140.597044 0 0 0-140.597044 138.108601H161.126902a124.422163 124.422163 0 0 0-124.422163 124.422163v62.211081a62.211081 62.211081 0 0 0 62.211081 62.211082h9.953773l62.211082 543.724852a90.828179 90.828179 0 0 0 87.717625 93.316622h508.886646A89.583957 89.583957 0 0 0 852.914128 933.171821l62.211081-546.835406h9.953773a62.211081 62.211081 0 0 0 62.211082-62.211082v-62.211081a124.422163 124.422163 0 0 0-126.288496-123.800052zM387.575238 62.21668h253.821213A78.385963 78.385963 0 0 1 721.026635 138.1142H309.189276A78.385963 78.385963 0 0 1 387.575238 62.21668z m535.637412 262.530764H857.891014a31.105541 31.105541 0 0 0-31.105541 31.105541 30.48343 30.48343 0 0 0 24.262322 29.861319l-62.211081 544.969074a29.239208 29.239208 0 0 1-25.506544 31.105541H256.309856c-13.686438 0-25.506543-14.308549-25.506543-34.216095l-62.211082-539.992187h356.469497a31.105541 31.105541 0 1 0 0-62.211082H98.91582v-62.211081a62.211081 62.211081 0 0 1 62.211082-62.211082h699.874666a62.211081 62.211081 0 0 1 62.211082 62.211082z" p-id="1745"></path><path d="M704.229643 324.747444h-62.211082a31.105541 31.105541 0 0 0 0 62.211082h62.211082a31.105541 31.105541 0 0 0 0-62.211082zM374.510911 497.694251a31.105541 31.105541 0 0 0-31.105541 31.10554v311.055408a31.105541 31.105541 0 0 0 62.211082 0v-311.055408a31.105541 31.105541 0 0 0-31.105541-31.10554zM516.352177 497.694251a31.105541 31.105541 0 0 0-31.105541 31.10554v311.055408a31.105541 31.105541 0 0 0 62.211082 0v-311.055408a31.105541 31.105541 0 0 0-31.105541-31.10554zM667.525105 492.095253a31.105541 31.105541 0 0 0-31.105541 31.105541v311.055408a31.105541 31.105541 0 1 0 62.211082 0v-311.055408a31.105541 31.105541 0 0 0-31.105541-31.105541z" p-id="1746"></path></svg>