<?xml version="1.0" standalone="no"?><!DOCTYPE svg PUBLIC "-//W3C//DTD SVG 1.1//EN" "http://www.w3.org/Graphics/SVG/1.1/DTD/svg11.dtd"><svg t="1592750565980" class="icon" viewBox="0 0 1027 1024" version="1.1" xmlns="http://www.w3.org/2000/svg" p-id="1991" xmlns:xlink="http://www.w3.org/1999/xlink" width="200.5859375" height="200"><defs><style type="text/css"></style></defs><path d="M529.943273 955.508364c-150.621091 0-300.427636-62.580364-406.853818-184.785455-37.445818-43.101091-62.976-81.664-82.757818-125.090909-77.963636-161.047273-37.934545-356.282182 97.512727-474.251636 166.027636-144.500364 421.003636-126.999273 565.504 38.888727 46.545455 55.621818 32.465455 55.621818 102.283636 67.746909l0 0.023273c46.545455 13.381818 110.987636 45.498182 151.109818 91.648 84.898909 97.512727 92.439273 238.08 23.482182 344.482909-0.488727 1.093818-1.745455 2.187636-2.420364 3.234909-26.368 39.144727-58.158545 74.752-93.882182 105.844364C781.963636 911.988364 655.522909 955.508364 529.943273 955.508364zM399.848727 119.947636c-82.152727 0-164.677818 28.462545-231.400727 86.528C48.779636 310.690909 13.405091 483.141818 82.478545 625.826909c18.292364 40.192 40.890182 74.24 75.729455 114.338909 178.315636 204.753455 489.984 226.304 694.830545 47.965091 25.6-22.272 48.802909-47.057455 69.213091-73.937455 0.814545-1.885091 1.885091-3.677091 3.258182-5.352727 72.936727-90.833455 70.283636-220.602182-6.330182-308.573091-33.815273-38.888727-79.383273-65.885091-129.489455-76.962909l-14.429091-2.746182 0.116364-0.628364c-52.037818-12.474182-60.066909-19.944727-109.847273-79.406545C596.084364 160.791273 498.222545 119.947636 399.848727 119.947636z" p-id="1992"></path><path d="M646.004364 384.046545c-2.746182 0-5.515636-0.488727-8.238545-1.512727-97.117091-36.794182-121.181091-102.586182-122.158545-105.378909-4.282182-12.125091 2.117818-25.413818 14.242909-29.649455 12.032-4.235636 25.227636 2.024727 29.579636 14.033455 0.930909 2.466909 19.618909 48.989091 94.813091 77.474909 12.032 4.538182 18.059636 17.989818 13.521455 29.998545C664.250182 378.298182 655.383273 384.046545 646.004364 384.046545z" p-id="1993"></path><path d="M776.541091 464.64c-9.309091 0-18.152727-3.723636-24.692364-10.24-6.493091-6.516364-10.216727-15.592727-10.216727-24.669091 0-9.309091 3.723636-18.385455 10.216727-24.669091 12.823273-13.032727 36.538182-13.032727 49.338182 0 6.516364 6.283636 10.24 15.36 10.24 24.669091 0 9.076364-3.723636 18.152727-10.24 24.669091S785.850182 464.64 776.541091 464.64z" p-id="1994"></path></svg>