<?xml version="1.0" standalone="no"?><!DOCTYPE svg PUBLIC "-//W3C//DTD SVG 1.1//EN" "http://www.w3.org/Graphics/SVG/1.1/DTD/svg11.dtd"><svg t="1592750388004" class="icon" viewBox="0 0 1024 1024" version="1.1" xmlns="http://www.w3.org/2000/svg" p-id="1672" xmlns:xlink="http://www.w3.org/1999/xlink" width="200" height="200"><defs><style type="text/css"></style></defs><path d="M1015.467 597.333a242.773 242.773 0 0 1-242.774 242.774 34.133 34.133 0 0 1 0-68.267 174.507 174.507 0 0 0 29.44-346.453l-20.053-3.414-6.4-19.2a279.04 279.04 0 0 0-527.787 0l-6.4 19.2-20.053 3.414a174.507 174.507 0 0 0 29.44 346.453 34.133 34.133 0 1 1 0 68.267 242.773 242.773 0 0 1-60.587-479.147 347.307 347.307 0 0 1 642.987 0 242.773 242.773 0 0 1 182.187 236.373zM546.133 864.427a34.133 34.133 0 0 1-29.44 16.64 34.133 34.133 0 0 1-24.746-9.814L317.013 695.04a34.133 34.133 0 0 1 48.214-48.213l117.76 117.76v-308.48a34.133 34.133 0 0 1 68.266 0V761.6l114.774-114.773a34.133 34.133 0 1 1 48.213 48.213z" p-id="1673"></path></svg>