<?xml version="1.0" standalone="no"?><!DOCTYPE svg PUBLIC "-//W3C//DTD SVG 1.1//EN" "http://www.w3.org/Graphics/SVG/1.1/DTD/svg11.dtd"><svg t="1594484338272" class="icon" viewBox="0 0 1024 1024" version="1.1" xmlns="http://www.w3.org/2000/svg" p-id="10639" width="512" height="512" xmlns:xlink="http://www.w3.org/1999/xlink"><defs><style type="text/css"></style></defs><path d="M633.599807 745.59971m-278.40029 0a278.40029 278.40029 0 1 0 556.80058 0 278.40029 278.40029 0 1 0-556.80058 0Z" fill="#FDBF5E" p-id="10640"></path><path d="M907.200661 14.400371H116.799339a43.019612 43.019612 0 0 0-43.199049 43.199049v164.799887H950.39971V56.000983c0-22.400806-19.199807-41.600612-43.199049-41.600612z" fill="#E1E6E9" p-id="10641"></path><path d="M950.39971 235.199178H73.60029a14.340558 14.340558 0 0 1-14.400371-14.40037V56.000983C59.199919 25.599742 84.799662 0 116.799339 0h791.999759c30.399178 0 56.000983 25.599742 56.000983 56.000983v164.799887a14.340558 14.340558 0 0 1-14.400371 14.398308zM88.000661 206.4005h848.000741V56.000983a28.681116 28.681116 0 0 0-28.800741-28.800741H116.799339a28.681116 28.681116 0 0 0-28.800741 28.800741v150.399517z" fill="#193651" p-id="10642"></path><path d="M129.59921 70.399291h763.199018v94.400596H129.59921z" fill="#FFFFFF" p-id="10643"></path><path d="M73.60029 220.80087v505.599033a43.019612 43.019612 0 0 0 43.199049 43.19905h791.999759a43.019612 43.019612 0 0 0 43.199049-43.19905V220.80087H73.60029z" fill="#2EA2DB" p-id="10644"></path><path d="M950.39971 206.4005H73.60029a14.340558 14.340558 0 0 0-14.400371 14.40037v505.599033c0 30.399178 25.599742 56.000983 56.000983 56.000983h791.999759c30.399178 0 56.000983-25.599742 56.000983-56.000983V220.80087c1.598437-8.000435-4.801499-14.400371-12.801934-14.40037z m-14.400371 519.999403a28.681116 28.681116 0 0 1-28.800741 28.800742H116.799339a28.681116 28.681116 0 0 1-28.800741-28.800742V235.199178h848.000741v491.200725z" fill="#193651" p-id="10645"></path><path d="M129.59921 278.40029h763.199018v433.599243H129.59921z" fill="#FFFFFF" p-id="10646"></path><path d="M675.200419 103.999468h28.800741v28.800741H675.200419zM751.999646 103.999468h28.800741v28.800741h-28.800741zM827.200435 103.999468h28.800741v28.800741h-28.800741z" fill="#193651" p-id="10647"></path><path d="M304.000032 598.39913c-80.000226 0-145.600081-65.599855-145.60008-145.600081s65.599855-145.600081 145.60008-145.60008 145.600081 65.599855 145.600081 145.60008-65.599855 145.600081-145.600081 145.600081z" fill="#E1E6E9" p-id="10648"></path><path d="M363.199952 399.999065c0 30.399178-27.200242 76.799227-60.800419 76.799227s-60.800419-46.400048-60.800419-76.799227c0-30.399178 27.200242-56.000983 60.800419-56.000982s60.800419 27.202304 60.800419 56.000982z" fill="#FDBF5E" p-id="10649"></path><path d="M315.199404 339.200709c-25.599742-4.799436-38.399613 8.000435-40.000113 11.199372 0 0-1.6005 0-1.600499 1.600499-38.399613-8.000435-30.399178 48.000548-30.399179 48.000548 0 9.600935 3.200999 20.800306 6.399936 30.399178 0-8.000435 1.6005-44.799549 22.400805-40.000113 0 0 25.599742 17.599307 59.19992 0 0 0 22.400806-8.000435 25.599742 38.399614 4.799436-9.600935 35.200677-73.60029-41.600612-89.599098z" fill="#193651" p-id="10650"></path><path d="M350.400081 476.800354h-91.199598c-30.399178 0-56.000983 25.599742-56.000983 56.000983v20.800307c25.599742 27.200242 62.400918 43.199049 100.800532 43.199049 40.000113 0 75.20079-16.00087 100.800532-43.199049v-20.800307c1.598437-30.401241-24.001305-56.000983-54.400483-56.000983z" fill="#F16051" p-id="10651"></path><path d="M262.39942 476.800354l25.599742 44.799549c6.399936 11.199372 23.999243 11.199372 30.399178 0l25.599743-44.799549h-81.598663z" fill="#FDBF5E" p-id="10652"></path><path d="M590.400757 350.400081h251.200049v28.800741H590.400757zM590.400757 438.400741h251.200049v28.800741H590.400757zM590.400757 524.79884h126.400274v28.800741h-126.400274z" fill="#193651" p-id="10653"></path><path d="M833.600371 620.799936H435.199742v215.999371h241.599114l102.401031 54.400484v-54.400484h54.400484z" fill="#F16051" p-id="10654"></path><path d="M772.799952 903.999662l-99.200033-51.199485H433.599243a14.340558 14.340558 0 0 1-14.400371-14.40037V620.799936a14.340558 14.340558 0 0 1 14.400371-14.400371h398.400628a14.340558 14.340558 0 0 1 14.400371 14.400371v217.599871a14.340558 14.340558 0 0 1-14.400371 14.40037h-38.399613v40.000113c0 4.799436-3.200999 9.600935-6.399936 12.799871-4.801499 0-9.600935 0-14.40037-1.600499z m-323.199839-81.600725h228.799242c1.6005 0 4.799436 0 6.399936 1.600499l81.600725 43.199049v-30.399178a14.340558 14.340558 0 0 1 14.400371-14.40037h38.399613v-187.200693h-369.599887v187.200693z" fill="#193651" p-id="10655"></path><path d="M489.600226 676.798856h289.599661v103.999468H489.600226z" fill="#FFFFFF" p-id="10656"></path><path d="M539.201273 728.000403a17.599307 17.599307 0 1 0 35.198614 0 17.599307 17.599307 0 1 0-35.198614 0Z" fill="#193651" p-id="10657"></path><path d="M616.0005 728.000403a17.599307 17.599307 0 1 0 35.198614 0 17.599307 17.599307 0 1 0-35.198614 0Z" fill="#193651" p-id="10658"></path><path d="M694.400226 728.000403a17.599307 17.599307 0 1 0 35.198614 0 17.599307 17.599307 0 1 0-35.198614 0Z" fill="#193651" p-id="10659"></path></svg>