<?xml version="1.0" standalone="no"?><!DOCTYPE svg PUBLIC "-//W3C//DTD SVG 1.1//EN" "http://www.w3.org/Graphics/SVG/1.1/DTD/svg11.dtd"><svg t="1592750074198" class="icon" viewBox="0 0 1024 1024" version="1.1" xmlns="http://www.w3.org/2000/svg" p-id="1268" xmlns:xlink="http://www.w3.org/1999/xlink" width="200" height="200"><defs><style type="text/css"></style></defs><path d="M955.2384 1024H40.0896a40.0896 40.0896 0 0 1 0-80.1792h915.1488a40.0896 40.0896 0 0 1 0 80.1792zM745.472 390.2976L559.4112 200.704l102.9632-105.0112 186.6752 189.5424-103.2704 105.0624h-0.3072zM406.3744 735.744l-230.2464 40.704 44.7488-229.6832L503.808 257.4848l186.0608 189.5424-283.4944 288.768z m523.7248-480.9728L692.5312 12.5952A42.7008 42.7008 0 0 0 663.2448 0a41.5744 41.5744 0 0 0-29.2352 12.5952L157.0816 497.3568a39.2192 39.2192 0 0 0-12.288 22.528L88.3712 819.2a39.7824 39.7824 0 0 0 10.8032 35.1232 38.2976 38.2976 0 0 0 34.5088 11.4176L430.08 813.568a39.4752 39.4752 0 0 0 23.9616-11.3664l476.0576-486.5536a43.6224 43.6224 0 0 0 12.288-29.2864 43.3152 43.3152 0 0 0-12.288-29.2352v-2.3552z" p-id="1269"></path></svg>