<?xml version="1.0" standalone="no"?><!DOCTYPE svg PUBLIC "-//W3C//DTD SVG 1.1//EN" "http://www.w3.org/Graphics/SVG/1.1/DTD/svg11.dtd"><svg t="1594484656044" class="icon" viewBox="0 0 1024 1024" version="1.1" xmlns="http://www.w3.org/2000/svg" p-id="11528" width="512" height="512" xmlns:xlink="http://www.w3.org/1999/xlink"><defs><style type="text/css"></style></defs><path d="M511.998969 511.998969m-511.998969 0a511.998969 511.998969 0 1 0 1023.997938 0 511.998969 511.998969 0 1 0-1023.997938 0Z" fill="#E1E6E9" p-id="11529"></path><path d="M551.999082 1007.99913h-107.198405l-19.199807-358.398453h145.598018z" fill="#FFFFFF" p-id="11530"></path><path d="M551.999082 1024H444.798614c-8.000435 0-16.00087-6.399936-16.00087-14.400371l-19.199806-358.400515c0-4.799436 1.6005-8.000435 4.799436-11.199372s8.000435-4.799436 11.199371-4.799436h145.600081c4.799436 0 8.000435 1.6005 11.199371 4.799436 3.200999 3.200999 4.799436 8.000435 4.799436 11.199372l-19.199806 358.400515c0.004125 8.000435-6.395811 14.400371-15.996745 14.400371z m-91.199598-31.999678h76.799227l17.599307-326.400838h-111.999903l17.601369 326.400838z" fill="#193651" p-id="11531"></path><path d="M499.199098 537.600773m-192.000129 0a192.000129 192.000129 0 1 0 384.000258 0 192.000129 192.000129 0 1 0-384.000258 0Z" fill="#2EA2DB" p-id="11532"></path><path d="M499.199098 745.59971c-115.200902 0-207.998937-92.800097-207.998937-207.998937s92.800097-207.998937 207.998937-207.998936S707.200097 422.399871 707.200097 537.600773c0 113.59834-92.800097 207.998937-208.000999 207.998937z m0-384.000258c-97.599533 0-175.999259 78.399726-175.999259 175.999259s78.399726 175.999259 175.999259 175.999259 175.999259-78.399726 175.999258-175.999259-78.397664-175.999259-175.999258-175.999259z" fill="#193651" p-id="11533"></path><path d="M499.199098 537.600773m-131.19971 0a131.19971 131.19971 0 1 0 262.39942 0 131.19971 131.19971 0 1 0-262.39942 0Z" fill="#FFFFFF" p-id="11534"></path><path d="M401.599565 521.599903h31.999678v30.399179h-31.999678zM483.20029 521.599903h31.999678v30.399179h-31.999678zM564.798953 521.599903h31.999677v30.399179h-31.999677zM483.20029 809.599065h31.999678v52.799984h-31.999678z" fill="#193651" p-id="11535"></path><path d="M886.400354 217.599871m-121.600837 0a121.600838 121.600838 0 1 0 243.201675 0 121.600838 121.600838 0 1 0-243.201675 0Z" fill="#FDBF5E" p-id="11536"></path><path d="M886.400354 356.800016c-76.799227 0-137.599646-62.400918-137.599645-137.599645s60.800419-139.200145 137.599645-139.200145 137.599646 62.400918 137.599646 137.599645-62.400918 139.200145-137.599646 139.200145z m0-244.800113c-59.199919 0-105.599968 48.000548-105.599967 105.599968s48.000548 105.599968 105.599967 105.599968c59.199919 0 105.599968-48.000548 105.599968-105.599968s-48.000548-105.599968-105.599968-105.599968z" fill="#193651" p-id="11537"></path><path d="M895.999227 241.599114h-19.199807v-11.199372c0-4.799436 0-8.000435 1.600499-9.600934 1.6005-1.6005 3.200999-4.799436 6.399936-9.600935l12.799871-12.799871c3.200999-3.200999 3.200999-6.399936 3.200999-11.199372 0-4.799436-1.6005-8.000435-4.799436-11.199371s-6.399936-4.799436-11.199372-4.799436-8.000435 1.6005-11.199371 4.799436c-3.200999 3.200999-4.799436 6.399936-4.799436 11.199371h-20.800306c1.6005-9.600935 4.799436-17.599307 11.199371-23.999242 6.399936-6.399936 16.00087-8.000435 25.599742-8.000435 9.600935 0 19.199807 3.200999 25.599743 8.000435s9.600935 12.799871 9.600934 23.999242c0 6.399936-1.6005 12.799871-6.399935 17.599308-1.6005 3.200999-3.200999 4.799436-4.799436 6.399935l-4.799436 4.799436-4.799436 4.799436c-1.6005 1.6005-1.6005 3.200999-3.200999 3.200999v17.60137z m-9.598873 38.401676c-3.200999 0-6.399936-1.6005-9.600934-3.200999-3.200999-3.200999-3.200999-4.799436-3.200999-9.600935 0-4.799436 1.6005-6.399936 3.200999-9.600935 3.200999-3.200999 6.399936-3.200999 9.600934-3.200999s6.399936 1.6005 9.600935 3.200999c3.200999 3.200999 3.200999 4.799436 3.200999 9.600935 0 3.200999-1.6005 6.399936-3.200999 9.600935-3.200999 1.6005-6.401998 3.200999-9.600935 3.200999z" fill="#193651" p-id="11538"></path><path d="M513.599468 137.599646m-121.600838 0a121.600838 121.600838 0 1 0 243.201676 0 121.600838 121.600838 0 1 0-243.201676 0Z" fill="#FDBF5E" p-id="11539"></path><path d="M513.599468 276.799791c-76.799227 0-137.599646-62.400918-137.599645-137.599646S436.800242 0 513.599468 0s137.599646 62.400918 137.599646 137.599646-62.398856 139.200145-137.599646 139.200145z m0-244.800113c-59.199919 0-105.599968 48.000548-105.599968 105.599968s48.000548 105.599968 105.599968 105.599967c59.199919 0 105.599968-48.000548 105.599968-105.599967s-48.000548-105.599968-105.599968-105.599968z" fill="#193651" p-id="11540"></path><path d="M523.200403 161.600951h-19.199807v-11.199372c0-4.799436 0-8.000435 1.6005-9.600934s3.200999-4.799436 6.399935-9.600935l12.799871-12.799871C527.999839 116.799339 527.999839 113.600403 527.999839 108.800967s0-8.000435-3.200999-9.600935c-3.200999-3.200999-6.399936-4.799436-11.199372-4.799436-4.799436 0-8.000435 1.6005-11.199371 4.799436-3.200999 3.200999-4.799436 6.399936-4.799436 11.199372h-20.800307c1.6005-9.600935 4.799436-17.599307 11.199372-23.999243 6.399936-6.399936 16.00087-8.000435 25.599742-8.000435 9.600935 0 19.199807 3.200999 25.599742 8.000435s9.600935 12.799871 9.600935 23.999243c0 6.399936-1.6005 12.799871-6.399936 17.599307-1.6005 3.200999-3.200999 4.799436-4.799436 6.399935l-4.799436 4.799437-4.799436 4.799436c0-3.200999-1.6005-1.6005-1.600499 0-1.6005 3.200999-3.200999 6.399936-3.200999 11.199371v6.404061z m-9.600935 38.399613c-3.200999 0-6.399936-1.6005-9.600934-3.200999-3.200999-3.200999-3.200999-4.799436-3.200999-9.600935 0-3.200999 1.6005-6.399936 3.200999-9.600934 3.200999-3.200999 6.399936-3.200999 9.600934-3.200999s6.399936 1.6005 9.600935 3.200999c3.200999 3.200999 3.200999 4.799436 3.200999 9.600934 0 3.200999-1.6005 6.399936-3.200999 9.600935-3.200999 1.6005-6.399936 3.200999-9.600935 3.200999z" fill="#193651" p-id="11541"></path><path d="M140.800645 217.599871m-121.600838 0a121.600838 121.600838 0 1 0 243.201675 0 121.600838 121.600838 0 1 0-243.201675 0Z" fill="#FDBF5E" p-id="11542"></path><path d="M140.800645 356.800016c-76.799227 0-137.599646-62.400918-137.599646-137.599645S63.999355 80.000226 140.800645 80.000226s137.599646 62.400918 137.599645 137.599645-62.400918 139.200145-137.599645 139.200145z m0-244.800113c-59.199919 0-105.599968 48.000548-105.599968 105.599968s48.000548 105.599968 105.599968 105.599968c59.199919 0 105.599968-48.000548 105.599967-105.599968s-48.000548-105.599968-105.599967-105.599968z" fill="#193651" p-id="11543"></path><path d="M150.399517 241.599114h-19.199807v-11.199372c0-4.799436 0-8.000435 1.600499-9.600934 1.6005-1.6005 3.200999-4.799436 6.399936-9.600935l12.799871-12.799871c3.200999-3.200999 3.200999-6.399936 3.200999-11.199372 0-4.799436-1.6005-8.000435-4.799436-11.199371s-6.399936-4.799436-11.199371-4.799436c-4.799436 0-8.000435 1.6005-11.199372 4.799436s-4.799436 6.399936-4.799436 11.199371h-19.199807c1.6005-9.600935 4.799436-17.599307 11.199372-23.999242s16.00087-8.000435 25.599742-8.000435 19.199807 3.200999 25.599742 8.000435c6.399936 4.799436 9.600935 12.799871 9.600935 23.999242 0 6.399936-1.6005 12.799871-6.399936 17.599308-1.6005 3.200999-3.200999 4.799436-4.799436 6.399935l-4.799436 4.799436-4.799436 4.799436c-1.6005 1.6005-1.6005 3.200999-3.200999 3.200999-1.6005 3.200999-3.200999 6.399936-3.200999 11.199372v6.399935h1.596375z m-9.598872 38.401676c-3.200999 0-6.399936-1.6005-9.600935-3.200999-3.200999-3.198937-3.200999-6.399936-3.200999-9.600935s1.6005-6.399936 3.200999-9.600935c3.200999-3.200999 6.399936-3.200999 9.600935-3.200999s6.399936 1.6005 9.600934 3.200999c3.200999 3.200999 3.200999 4.799436 3.200999 9.600935 0 3.200999-1.6005 6.399936-3.200999 9.600935-3.200999 1.6005-6.401998 3.200999-9.600934 3.200999zM992.000322 515.199968h31.999678V803.19913H992.000322zM992.000322 841.598743h31.999678v31.999678H992.000322zM992.000322 905.600161h31.999678v31.999678H992.000322zM889.599291 435.199742h31.999678v287.999162h-31.999678zM889.599291 761.60058h31.999678v31.999678h-31.999678zM889.599291 825.599936h31.999678v31.999677h-31.999678zM787.200322 515.199968h31.999678V803.19913h-31.999678zM787.200322 841.598743h31.999678v31.999678h-31.999678zM787.200322 905.600161h31.999678v31.999678h-31.999678zM206.4005 531.200838h31.999677v287.999162h-31.999677zM206.4005 857.599613h31.999677v31.999678h-31.999677zM206.4005 921.598969h31.999677v31.999677h-31.999677zM103.999468 451.200612h31.999678V739.199774H103.999468zM103.999468 777.599388h31.999678v31.999677H103.999468zM103.999468 841.598743h31.999678v31.999678H103.999468zM1.6005 531.200838h31.999677v287.999162H1.6005zM1.6005 857.599613h31.999677v31.999678H1.6005zM1.6005 921.598969h31.999677v31.999677H1.6005z" fill="#193651" p-id="11544"></path></svg>