<?xml version="1.0" standalone="no"?><!DOCTYPE svg PUBLIC "-//W3C//DTD SVG 1.1//EN" "http://www.w3.org/Graphics/SVG/1.1/DTD/svg11.dtd"><svg t="1592749879935" class="icon" viewBox="0 0 1024 1024" version="1.1" xmlns="http://www.w3.org/2000/svg" p-id="1682" xmlns:xlink="http://www.w3.org/1999/xlink" width="200" height="200"><defs><style type="text/css"></style></defs><path d="M900.9 953H123.1c-47 0-85.1-38.2-85.1-85.1V588.1c0-11.2 9.1-20.3 20.3-20.3s20.3 9.1 20.3 20.3v279.8c0 24.5 19.9 44.5 44.5 44.5h777.8c24.5 0 44.5-19.9 44.5-44.5V428.7c0-24.5-19.9-44.5-44.5-44.5H123.1c-24.5 0-44.5 19.9-44.5 44.5v73.2c0 11.2-9.1 20.3-20.3 20.3S38 513.1 38 501.9v-73.2c0-46.9 38.2-85.1 85.1-85.1h777.8c46.9 0 85.1 38.2 85.1 85.1V868c0 46.8-38.2 85-85.1 85z" p-id="1683"></path><path d="M796.5 384.2c-5 0-10-1.8-13.9-5.5l-221.7-209c-8.2-7.7-8.5-20.6-0.8-28.7 7.7-8.2 20.5-8.5 28.7-0.8l221.7 209c8.2 7.7 8.5 20.6 0.8 28.7-4 4.2-9.4 6.3-14.8 6.3zM227.5 384.2c-5.4 0-10.8-2.1-14.8-6.4-7.7-8.2-7.3-21 0.8-28.7l216.4-204c8.2-7.7 21-7.3 28.7 0.8 7.7 8.2 7.3 21-0.8 28.7l-216.4 204c-3.9 3.8-8.9 5.6-13.9 5.6z" p-id="1684"></path><path d="M512 223.9c-41.8 0-75.8-34-75.8-75.8s34-75.8 75.8-75.8 75.8 34 75.8 75.8-34 75.8-75.8 75.8z m0-116.2c-22.2 0-40.3 18.1-40.3 40.3s18.1 40.3 40.3 40.3c22.2 0 40.3-18.1 40.3-40.3s-18.1-40.3-40.3-40.3zM58.3 816.7c-6.9 0-13.7-3.6-17.5-10-5.7-9.6-2.5-22.1 7.1-27.8l303.8-180.3c9.6-5.7 22.1-2.5 27.8 7.1 5.7 9.6 2.5 22.1-7.1 27.8L68.6 813.9c-3.2 1.9-6.8 2.8-10.3 2.8z" p-id="1685"></path><path d="M569.9 811.7c-4.6 0-9.3-1.6-13.1-4.8L349 631.6c-8.6-7.2-9.7-20-2.4-28.6 7.2-8.6 20-9.7 28.6-2.4L583 775.8c8.6 7.2 9.7 20 2.4 28.6-4 4.8-9.8 7.3-15.5 7.3z" p-id="1686"></path><path d="M429.9 953c-5.3 0-10.7-2.1-14.7-6.3-7.8-8.1-7.5-21 0.6-28.7l239-229c8.1-7.8 21-7.5 28.7 0.6 7.8 8.1 7.5 21-0.6 28.7l-239 229c-3.9 3.8-9 5.7-14 5.7z" p-id="1687"></path><path d="M874.6 953c-5.6 0-11.1-2.3-15.1-6.7l-205.7-229c-7.5-8.3-6.8-21.2 1.5-28.7s21.2-6.8 28.7 1.5l205.7 229c7.5 8.3 6.8 21.2-1.5 28.7-3.9 3.5-8.8 5.2-13.6 5.2zM783.4 651.5c-40.6 0-73.6-33-73.6-73.6 0-40.6 33-73.6 73.6-73.6 40.6 0 73.6 33 73.6 73.6-0.1 40.6-33.1 73.6-73.6 73.6z m0-111.6c-21 0-38 17.1-38 38 0 21 17.1 38 38 38 21 0 38-17.1 38-38s-17.1-38-38-38z" p-id="1688"></path></svg>