<?xml version="1.0" standalone="no"?><!DOCTYPE svg PUBLIC "-//W3C//DTD SVG 1.1//EN" "http://www.w3.org/Graphics/SVG/1.1/DTD/svg11.dtd"><svg t="1592749950879" class="icon" viewBox="0 0 1024 1024" version="1.1" xmlns="http://www.w3.org/2000/svg" p-id="2090" xmlns:xlink="http://www.w3.org/1999/xlink" width="200" height="200"><defs><style type="text/css"></style></defs><path d="M250.6 938.9c-5.8-1.5-11.3-4.1-16.4-7.6-15.9-11.1-23.9-30-20.9-49.1l39.8-256.8c0.7-4.3-0.8-8.6-4-11.6l-189-178.4c-14.1-13.3-19.3-33.1-13.6-51.6 5.7-18.5 21.1-32 40.3-35.1L343.4 307c4.3-0.7 8-3.5 9.8-7.4L464.5 64.8c8.3-17.5 25.5-28.6 44.9-28.9 19.4-0.3 36.9 10.2 45.8 27.5l118.7 231.2c2 3.9 5.8 6.5 10 7.1L941.7 335c19.2 2.5 35.1 15.4 41.4 33.8 6.3 18.3 1.7 38.3-12 52L787.9 605c-3.1 3.1-4.4 7.5-3.6 11.7l48 255.4c3.6 19.1-3.8 38.1-19.3 49.8-15.5 11.6-35.9 13.5-53.2 4.7l-232-117.3c-3.9-2-8.5-1.9-12.3 0.2l-228 124.7c-11.6 6.3-24.7 7.8-36.9 4.7zM513.7 73.7c-1.5-0.4-2.9-0.5-3.7-0.4-2.5 0-8.5 0.9-11.7 7.5L387 315.7c-7.1 15-21.2 25.6-37.6 28.3L92.7 385.4c-7.3 1.2-9.8 6.8-10.5 9.1-0.7 2.4-1.8 8.4 3.6 13.5l189 178.4c12.1 11.4 17.8 28.1 15.3 44.5l-39.8 256.8c-1.1 7.3 3.4 11.4 5.5 12.8 2 1.4 7.4 4.3 13.9 0.8l228.1-124.6c14.6-8 32.2-8.3 47.1-0.8l232 117.3c6.6 3.3 11.9 0.3 13.9-1.2s6.4-5.7 5-13l-48-255.4c-3.1-16.4 2.1-33.2 13.8-45l183.2-184.4c5.2-5.3 3.9-11.2 3.1-13.6-0.8-2.3-3.5-7.9-10.8-8.8l-257.8-33.3c-16.5-2.1-30.9-12.2-38.5-27.1l-118.9-231c-2.2-4.2-5.5-6-8.2-6.7z" p-id="2091"></path><path d="M706.9 268.2c-7.9-2-14.6-7.6-18-15.1l-44.2-97.5c-5.1-11.2-2.2-24 7.2-32 9.4-7.9 22.5-8.7 32.7-1.9l169.2 112.9c10.5 7 14.8 20.2 10.4 32.1-4.4 11.9-16.3 19.1-28.8 17.5l-125-15.4c-1.2 0-2.4-0.3-3.5-0.6z m-13.4-95.5l27.1 59.8 76.7 9.5-103.8-69.3z" p-id="2092"></path></svg>