<?xml version="1.0" standalone="no"?><!DOCTYPE svg PUBLIC "-//W3C//DTD SVG 1.1//EN" "http://www.w3.org/Graphics/SVG/1.1/DTD/svg11.dtd"><svg t="1592750409428" class="icon" viewBox="0 0 1024 1024" version="1.1" xmlns="http://www.w3.org/2000/svg" p-id="1918" xmlns:xlink="http://www.w3.org/1999/xlink" width="200" height="200"><defs><style type="text/css"></style></defs><path d="M264.107 948.053a34.133 34.133 0 0 1-50.774-35.84l46.934-276.053L61.44 440.747A34.133 34.133 0 0 1 80.213 384l277.334-42.667 124.16-250.88a34.133 34.133 0 0 1 61.013 0l123.733 250.88L943.787 384a34.133 34.133 0 0 1 18.773 58.027L762.453 637.44l48.214 274.773a34.133 34.133 0 0 1-49.494 35.84l-247.893-128z m232.106-198.826a34.133 34.133 0 0 1 31.574 0l202.666 104.106-38.4-225.706a34.133 34.133 0 0 1 9.814-30.294l163.84-160L640 407.04a34.133 34.133 0 0 1-25.6-18.773L512 183.04 410.453 388.267a34.133 34.133 0 0 1-25.6 18.773l-226.56 33.28 163.84 160a34.133 34.133 0 0 1 9.814 30.293l-38.4 222.72z" p-id="1919"></path></svg>