<?xml version="1.0" standalone="no"?><!DOCTYPE svg PUBLIC "-//W3C//DTD SVG 1.1//EN" "http://www.w3.org/Graphics/SVG/1.1/DTD/svg11.dtd"><svg t="1592750086445" class="icon" viewBox="0 0 1024 1024" version="1.1" xmlns="http://www.w3.org/2000/svg" p-id="1637" xmlns:xlink="http://www.w3.org/1999/xlink" width="200" height="200"><defs><style type="text/css"></style></defs><path d="M146.285714 0h731.428572a146.285714 146.285714 0 0 1 146.285714 146.285714v512a146.285714 146.285714 0 0 1-146.285714 146.285715H146.285714a146.285714 146.285714 0 0 1-146.285714-146.285715V146.285714a146.285714 146.285714 0 0 1 146.285714-146.285714z m0 73.142857a73.142857 73.142857 0 0 0-73.142857 73.142857v512a73.142857 73.142857 0 0 0 73.142857 73.142857h731.428572a73.142857 73.142857 0 0 0 73.142857-73.142857V146.285714a73.142857 73.142857 0 0 0-73.142857-73.142857H146.285714z m36.571429 512V438.857143h146.285714v146.285714h-146.285714zM438.857143 585.142857V292.571429h146.285714v292.571428H438.857143z m256 0V219.428571h146.285714v365.714286h-146.285714zM146.285714 877.714286h731.428572v73.142857H146.285714v-73.142857z" p-id="1638"></path></svg>