<?xml version="1.0" standalone="no"?><!DOCTYPE svg PUBLIC "-//W3C//DTD SVG 1.1//EN" "http://www.w3.org/Graphics/SVG/1.1/DTD/svg11.dtd"><svg t="1598671056303" class="icon" viewBox="0 0 1024 1024" version="1.1" xmlns="http://www.w3.org/2000/svg" p-id="3248" xmlns:xlink="http://www.w3.org/1999/xlink" width="200" height="200"><defs><style type="text/css"></style></defs><path d="M200 448h624c61.856 0 112 50.144 112 112v288c0 61.856-50.144 112-112 112H200c-61.856 0-112-50.144-112-112V560c0-61.856 50.144-112 112-112z m0 48a64 64 0 0 0-64 64v288a64 64 0 0 0 64 64h624a64 64 0 0 0 64-64V560a64 64 0 0 0-64-64H200z" p-id="3249"></path><path d="M200 592h88v88H200z" p-id="3250"></path><path d="M208 56m24 0l0 0q24 0 24 24l0 368q0 24-24 24l0 0q-24 0-24-24l0-368q0-24 24-24Z" p-id="3251"></path><path d="M776 64m24 0l0 0q24 0 24 24l0 368q0 24-24 24l0 0q-24 0-24-24l0-368q0-24 24-24Z" p-id="3252"></path><path d="M344 592h88v88H344z" p-id="3253"></path><path d="M588.792 349.76A215.568 215.568 0 0 0 512.776 336c-25.12 0-49.68 4.296-72.864 12.608a24 24 0 1 0 16.192 45.184A167.656 167.656 0 0 1 512.776 384c20.464 0 40.4 3.648 59.12 10.688a24 24 0 0 0 16.896-44.928zM668.368 283.648A294.696 294.696 0 0 0 513.6 240c-53.36 0-104.712 14.16-149.744 40.624a24 24 0 0 0 24.32 41.384A246.72 246.72 0 0 1 513.584 288c46.448 0 90.96 12.768 129.648 36.544a24 24 0 1 0 25.128-40.896z" p-id="3254"></path><path d="M732.68 217.776C668.432 170.144 590.632 144 508.952 144c-79.632 0-155.584 24.84-218.936 70.288a24 24 0 0 0 27.976 39C373.256 213.648 439.44 192 508.952 192c71.296 0 139.088 22.776 195.144 64.336a24 24 0 1 0 28.584-38.56z" p-id="3255"></path></svg>