<?xml version="1.0" standalone="no"?><!DOCTYPE svg PUBLIC "-//W3C//DTD SVG 1.1//EN" "http://www.w3.org/Graphics/SVG/1.1/DTD/svg11.dtd"><svg t="1592750420858" class="icon" viewBox="0 0 1024 1024" version="1.1" xmlns="http://www.w3.org/2000/svg" p-id="2164" xmlns:xlink="http://www.w3.org/1999/xlink" width="200" height="200"><defs><style type="text/css"></style></defs><path d="M398.933 399.787v530.346h391.254l132.266-524.8-362.24 2.134 24.747-85.334a209.493 209.493 0 0 0-54.187-203.52l-4.266-3.84c-3.414 127.574-31.147 203.947-127.574 285.014z m261.12-116.054a269.227 269.227 0 0 1-9.813 55.04h277.333a64 64 0 0 1 62.294 78.507l-134.4 533.333A64 64 0 0 1 793.6 998.4H394.667a64 64 0 0 1-64-64V366.933c128-96 128-192 128-285.44 0-136.533 205.653-2.56 202.24 189.44zM74.667 324.267h173.226a42.667 42.667 0 0 1 42.667 42.666v565.334a42.667 42.667 0 0 1-42.667 42.666H131.84a42.667 42.667 0 0 1-42.667-38.4L32.427 371.2A42.667 42.667 0 0 1 70.4 324.267z m80.213 582.4h67.413V392.533h-119.04z" p-id="2165"></path></svg>