<?xml version="1.0" standalone="no"?><!DOCTYPE svg PUBLIC "-//W3C//DTD SVG 1.1//EN" "http://www.w3.org/Graphics/SVG/1.1/DTD/svg11.dtd"><svg t="1592749659433" class="icon" viewBox="0 0 1260 1024" version="1.1" xmlns="http://www.w3.org/2000/svg" p-id="1894" xmlns:xlink="http://www.w3.org/1999/xlink" width="246.09375" height="200"><defs><style type="text/css"></style></defs><path d="M1180.834503 826.958083 669.139551 826.958083 669.139551 945.2777 865.945302 945.2777C887.692337 945.2777 905.306452 962.891814 905.306452 984.63885 905.306452 1006.385885 887.692337 1024 865.945302 1024L393.611501 1024C371.864465 1024 354.250351 1006.385885 354.250351 984.63885 354.250351 962.891814 371.864465 945.2777 393.611501 945.2777L590.417251 945.2777 590.417251 826.958083 78.7223 826.958083C35.444716 826.958083 0 791.513367 0 748.235783L0 78.860064C0 35.58248 35.444716 0.137764 78.7223 0.137764L1180.834503 0.137764C1224.112087 0.137764 1259.556803 35.58248 1259.556803 78.860064L1259.556803 748.235783C1259.556803 791.513367 1224.112087 826.958083 1180.834503 826.958083ZM1180.834503 78.860064 78.7223 78.860064 78.7223 748.235783 1180.834503 748.235783 1180.834503 78.860064Z" p-id="1895"></path></svg>