<?xml version="1.0" standalone="no"?><!DOCTYPE svg PUBLIC "-//W3C//DTD SVG 1.1//EN" "http://www.w3.org/Graphics/SVG/1.1/DTD/svg11.dtd"><svg t="1592749653733" class="icon" viewBox="0 0 1024 1024" version="1.1" xmlns="http://www.w3.org/2000/svg" p-id="1771" xmlns:xlink="http://www.w3.org/1999/xlink" width="200" height="200"><defs><style type="text/css"></style></defs><path d="M832.144 1024 191.856 1024C138.832 1024 95.856 981.024 95.856 928L95.856 96C95.856 42.976 138.832 0 191.856 0L832.144 0C885.184 0 928.144 42.976 928.144 96L928.144 928C928.144 981.024 885.184 1024 832.144 1024ZM864.144 96C864.144 78.336 849.808 64 832.144 64L191.856 64C174.208 64 159.856 78.336 159.856 96L159.856 928C159.856 945.664 174.208 960 191.856 960L832.144 960C849.808 960 864.144 945.664 864.144 928L864.144 96ZM576.048 160 448.048 160C430.368 160 416.048 145.68 416.048 128 416.048 110.32 430.368 96 448.048 96L576.048 96C593.728 96 608.048 110.32 608.048 128 608.048 145.68 593.728 160 576.048 160ZM512.048 800.176C547.328 800.176 575.888 828.768 575.888 863.984 575.888 899.232 547.328 927.84 512.048 927.84 476.768 927.84 448.208 899.232 448.208 863.984 448.208 828.768 476.768 800.176 512.048 800.176Z" p-id="1772"></path></svg>