<?xml version="1.0" standalone="no"?><!DOCTYPE svg PUBLIC "-//W3C//DTD SVG 1.1//EN" "http://www.w3.org/Graphics/SVG/1.1/DTD/svg11.dtd"><svg t="1592749627424" class="icon" viewBox="0 0 1024 1024" version="1.1" xmlns="http://www.w3.org/2000/svg" p-id="1648" xmlns:xlink="http://www.w3.org/1999/xlink" width="200" height="200"><defs><style type="text/css"></style></defs><path d="M704.144 1024 319.856 1024C266.832 1024 223.856 981.024 223.856 928L223.856 96C223.856 42.976 266.832 0 319.856 0L704.144 0C757.184 0 800.144 42.976 800.144 96L800.144 928C800.144 981.024 757.184 1024 704.144 1024ZM736.144 96C736.144 78.336 721.808 64 704.144 64L319.856 64C302.208 64 287.856 78.336 287.856 96L287.856 928C287.856 945.664 302.208 960 319.856 960L704.144 960C721.808 960 736.144 945.664 736.144 928L736.144 96ZM576.048 160 448.048 160C430.368 160 416.048 145.68 416.048 128 416.048 110.32 430.368 96 448.048 96L576.048 96C593.728 96 608.048 110.32 608.048 128 608.048 145.68 593.728 160 576.048 160ZM512.048 800.176C547.328 800.176 575.888 828.768 575.888 863.984 575.888 899.232 547.328 927.84 512.048 927.84 476.768 927.84 448.208 899.232 448.208 863.984 448.208 828.768 476.768 800.176 512.048 800.176Z" p-id="1649"></path></svg>