<?xml version="1.0" standalone="no"?><!DOCTYPE svg PUBLIC "-//W3C//DTD SVG 1.1//EN" "http://www.w3.org/Graphics/SVG/1.1/DTD/svg11.dtd"><svg t="1592751057212" class="icon" viewBox="0 0 1024 1024" version="1.1" xmlns="http://www.w3.org/2000/svg" p-id="2269" xmlns:xlink="http://www.w3.org/1999/xlink" width="200" height="200"><defs><style type="text/css"></style></defs><path d="M472.64768 347.46368v251.21792L614.53312 740.5568l28.95872-28.95872-129.88416-129.87392V347.46368z" p-id="2270"></path><path d="M889.46688 295.64928l-33.78176 23.15264c47.65696 69.56032 72.84736 151.08096 72.84736 235.75552 0 230.2976-187.36128 417.66912-417.66912 417.66912-230.2976 0-417.66912-187.37152-417.66912-417.66912 0-224.11264 177.44896-407.5008 399.22688-417.18784l-56.23808 56.23808 28.95872 28.95872 101.19168-101.19168-101.19168-101.19168-28.95872 28.95872 47.65696 47.65696C243.5072 110.848 52.25472 310.75328 52.25472 554.55744c0 252.88704 205.74208 458.62912 458.62912 458.62912s458.62912-205.74208 458.62912-458.62912c-0.01024-92.96896-27.67872-182.50752-80.04608-258.90816z" p-id="2271"></path></svg>