<?xml version="1.0" standalone="no"?><!DOCTYPE svg PUBLIC "-//W3C//DTD SVG 1.1//EN" "http://www.w3.org/Graphics/SVG/1.1/DTD/svg11.dtd"><svg t="1592750416136" class="icon" viewBox="0 0 1024 1024" version="1.1" xmlns="http://www.w3.org/2000/svg" p-id="2041" xmlns:xlink="http://www.w3.org/1999/xlink" width="200" height="200"><defs><style type="text/css"></style></defs><path d="M563.2 413.867c12.8-12.8 34.133-12.8 46.933 0 12.8 12.8 12.8 34.133 0 46.933L460.8 610.133c-12.8 12.8-34.133 12.8-46.933 0s-12.8-34.133 0-46.933L563.2 413.867z m-64-68.267c-12.8 12.8-34.133 12.8-46.933 0-12.8-12.8-12.8-34.133 0-46.933l115.2-115.2c76.8-76.8 200.533-76.8 273.066 0 76.8 76.8 76.8 200.533 0 273.066l-115.2 115.2c-12.8 12.8-34.133 12.8-46.933 0-12.8-12.8-12.8-34.133 0-46.933l115.2-115.2c51.2-51.2 51.2-128 0-179.2-51.2-51.2-128-51.2-179.2 0L499.2 345.6z m25.6 332.8c12.8-12.8 34.133-12.8 46.933 0 12.8 12.8 12.8 34.133 0 46.933l-115.2 115.2c-76.8 76.8-200.533 76.8-273.066 0s-76.8-200.533 0-273.066l115.2-115.2c12.8-12.8 34.133-12.8 46.933 0 12.8 12.8 12.8 34.133 0 46.933L230.4 614.4c-51.2 51.2-51.2 128 0 179.2 51.2 51.2 128 51.2 179.2 0l115.2-115.2z" p-id="2042"></path></svg>