<?xml version="1.0" standalone="no"?><!DOCTYPE svg PUBLIC "-//W3C//DTD SVG 1.1//EN" "http://www.w3.org/Graphics/SVG/1.1/DTD/svg11.dtd"><svg t="1592751035395" class="icon" viewBox="0 0 1024 1024" version="1.1" xmlns="http://www.w3.org/2000/svg" p-id="1899" xmlns:xlink="http://www.w3.org/1999/xlink" width="200" height="200"><defs><style type="text/css"></style></defs><path d="M1009.52064 417.08544l-100.096-285.0816-0.82944-2.01728c-16.10752-33.82272-38.5024-65.1264-92.78464-65.1264H203.96032c-54.28224 0-76.66688 31.30368-92.78464 65.1264L10.24 417.08544l6.42048 2.2528h-3.72736c0 47.68768 38.79936 86.4768 86.4768 86.4768 8.8064 0 17.3056-1.34144 25.32352-3.79904v325.71392c0 53.63712 41.15456 97.28 91.72992 97.28h586.84416c50.57536 0 91.72992-43.64288 91.72992-97.28V502.016a86.2208 86.2208 0 0 0 25.32352 3.79904c47.68768 0 86.4768-38.78912 86.4768-86.4768h-3.72736l6.41024-2.2528z m-155.4432 410.64448c0 31.04768-22.784 56.32-50.76992 56.32H216.46336c-27.99616 0-50.76992-25.27232-50.76992-56.32V475.72992h-0.8704c1.04448-1.19808 2.02752-2.44736 3.00032-3.70688 15.83104 20.50048 40.57088 33.78176 68.41344 33.78176s52.5824-13.28128 68.41344-33.78176c15.83104 20.50048 40.57088 33.78176 68.41344 33.78176s52.5824-13.28128 68.41344-33.78176c15.83104 20.50048 40.57088 33.78176 68.41344 33.78176s52.5824-13.28128 68.41344-33.78176c15.83104 20.50048 40.57088 33.78176 68.41344 33.78176s52.59264-13.28128 68.41344-33.78176c15.83104 20.50048 40.57088 33.78176 68.41344 33.78176s52.5824-13.28128 68.41344-33.78176c0.9728 1.25952 1.96608 2.49856 3.00032 3.70688h-0.8704v352z m66.27328-362.87488a45.568 45.568 0 0 1-45.50656-45.5168h-45.80352a45.568 45.568 0 0 1-45.50656 45.5168 45.568 45.568 0 0 1-45.5168-45.5168H692.224a45.568 45.568 0 0 1-45.5168 45.5168 45.568 45.568 0 0 1-45.50656-45.5168h-45.80352a45.568 45.568 0 0 1-45.50656 45.5168 45.568 45.568 0 0 1-45.5168-45.5168H418.58048c0 25.09824-20.41856 45.5168-45.5168 45.5168s-45.5168-20.41856-45.5168-45.5168H281.7536c0 25.09824-20.41856 45.5168-45.5168 45.5168s-45.5168-20.41856-45.5168-45.5168H144.92672c0 25.09824-20.41856 45.5168-45.5168 45.5168s-45.5168-20.41856-45.5168-45.5168h-1.03424l95.75424-272.71168c15.0528-31.25248 28.09856-40.81664 55.33696-40.81664h611.86048c27.2384 0 40.2944 9.56416 55.33696 40.8064l95.75424 272.71168h-1.03424a45.55776 45.55776 0 0 1-45.5168 45.52704z" p-id="1900"></path><path d="M236.2368 243.72224h547.29728v40.96H236.2368z" p-id="1901"></path></svg>