<?xml version="1.0" standalone="no"?><!DOCTYPE svg PUBLIC "-//W3C//DTD SVG 1.1//EN" "http://www.w3.org/Graphics/SVG/1.1/DTD/svg11.dtd"><svg t="1592751011278" class="icon" viewBox="0 0 1024 1024" version="1.1" xmlns="http://www.w3.org/2000/svg" p-id="1529" xmlns:xlink="http://www.w3.org/1999/xlink" width="200" height="200"><defs><style type="text/css"></style></defs><path d="M495.65696 499.15904H250.80832C115.79392 499.15904 5.95968 389.3248 5.95968 254.3104S115.79392 9.46176 250.80832 9.46176s244.8384 109.83424 244.8384 244.84864c0 1.1776-0.03072 2.34496-0.07168 3.51232l-0.04096 1.52576 0.12288 239.81056zM250.80832 50.42176c-112.42496 0-203.88864 91.46368-203.88864 203.88864s91.46368 203.88864 203.88864 203.88864h203.8784l-0.1024-199.22944 0.11264-4.6592c-0.01024-112.42496-91.46368-203.88864-203.88864-203.88864zM776.00768 499.15904H531.15904l0.12288-240.20992-0.04096-1.11616a99.95264 99.95264 0 0 1-0.07168-3.51232c0-135.0144 109.83424-244.84864 244.8384-244.84864s244.84864 109.824 244.84864 244.8384-109.83424 244.84864-244.84864 244.84864z m-203.86816-40.96h203.86816c112.42496 0 203.88864-91.46368 203.88864-203.88864S888.44288 50.42176 776.00768 50.42176c-112.42496 0-203.8784 91.46368-203.8784 203.88864l0.11264 4.2496-0.1024 199.63904zM247.98208 1024C112.97792 1024 3.14368 914.15552 3.14368 779.15136s109.83424-244.8384 244.84864-244.8384H492.8512l-0.13312 240.20992 0.04096 1.00352c0.04096 1.19808 0.08192 2.4064 0.08192 3.62496C492.83072 914.15552 382.99648 1024 247.98208 1024z m0-448.72704c-112.42496 0-203.88864 91.46368-203.88864 203.8784C44.10368 891.57632 135.55712 983.04 247.98208 983.04s203.88864-91.46368 203.88864-203.88864l-0.11264-4.17792 0.1024-199.70048h-203.8784zM773.20192 1024c-135.0144 0-244.84864-109.84448-244.84864-244.84864 0-1.28 0.04096-2.53952 0.08192-3.79904l0.0512-1.37216-0.14336-239.6672h244.85888c135.0144 0 244.8384 109.83424 244.8384 244.8384S908.20608 1024 773.20192 1024z m-203.8784-448.72704l0.11264 199.22944-0.12288 4.64896C569.31328 891.57632 660.76672 983.04 773.20192 983.04c112.42496 0 203.8784-91.46368 203.8784-203.88864 0-112.42496-91.46368-203.8784-203.8784-203.8784h-203.8784z" fill="" p-id="1530"></path></svg>