<?xml version="1.0" standalone="no"?><!DOCTYPE svg PUBLIC "-//W3C//DTD SVG 1.1//EN" "http://www.w3.org/Graphics/SVG/1.1/DTD/svg11.dtd"><svg t="1595255050807" class="icon" viewBox="0 0 1024 1024" version="1.1" xmlns="http://www.w3.org/2000/svg" p-id="7337" xmlns:xlink="http://www.w3.org/1999/xlink" width="512" height="512"><defs><style type="text/css"></style></defs><path d="M731.4 73.1c40.3 0 73.1 32.8 73.1 73.1v731.4c0 40.3-32.8 73.1-73.1 73.1H292.6c-40.3 0-73.1-32.8-73.1-73.1V146.3c0-40.3 32.8-73.1 73.1-73.1h438.8m0-73.2H292.6c-80.8 0-146.3 65.5-146.3 146.3v731.4c0 80.8 65.5 146.3 146.3 146.3h438.9c80.8 0 146.3-65.5 146.3-146.3V146.3C877.7 65.5 812.2 0 731.4 0z" p-id="7338"></path><path d="M512 834.7m-18.3 0a18.3 18.3 0 1 0 36.6 0 18.3 18.3 0 1 0-36.6 0Z" p-id="7339"></path><path d="M512 779.9c-30.3 0-54.9 24.6-54.9 54.9s24.6 54.9 54.9 54.9 54.9-24.6 54.9-54.9-24.6-54.9-54.9-54.9z" p-id="7340"></path></svg>