<?xml version="1.0" standalone="no"?><!DOCTYPE svg PUBLIC "-//W3C//DTD SVG 1.1//EN" "http://www.w3.org/Graphics/SVG/1.1/DTD/svg11.dtd"><svg t="1595298573193" class="icon" viewBox="0 0 1024 1024" version="1.1" xmlns="http://www.w3.org/2000/svg" p-id="2252" xmlns:xlink="http://www.w3.org/1999/xlink" width="512" height="512"><defs><style type="text/css"></style></defs><path d="M742.136082 1024h-464.494845c-82.342268 0-147.793814-65.451546-147.793814-147.793814v-717.855671c0-82.342268 65.451546-147.793814 147.793814-147.793814h464.494845c82.342268 0 147.793814 65.451546 147.793815 147.793814v717.855671c0 82.342268-65.451546 147.793814-147.793815 147.793814z m-464.494845-928.989691c-35.892784 0-63.340206 27.447423-63.340206 63.340206v717.855671c0 35.892784 27.447423 63.340206 63.340206 63.340206h464.494845c35.892784 0 63.340206-27.447423 63.340207-63.340206v-717.855671c0-35.892784-27.447423-63.340206-63.340207-63.340206h-464.494845z" p-id="2253"></path><path d="M805.476289 728.412371h-591.175258c-23.224742 0-42.226804-19.002062-42.226804-42.226804s19.002062-42.226804 42.226804-42.226804h591.175258c23.224742 0 42.226804 19.002062 42.226804 42.226804s-19.002062 42.226804-42.226804 42.226804zM509.88866 886.762887c-35.892784 0-63.340206-27.447423-63.340206-63.340207 0-33.781443 27.447423-63.340206 63.340206-63.340206 33.781443 0 63.340206 27.447423 63.340206 63.340206s-27.447423 63.340206-63.340206 63.340207z" p-id="2254"></path></svg>