<?xml version="1.0" standalone="no"?><!DOCTYPE svg PUBLIC "-//W3C//DTD SVG 1.1//EN" "http://www.w3.org/Graphics/SVG/1.1/DTD/svg11.dtd"><svg t="1594473963516" class="icon" viewBox="0 0 1024 1024" version="1.1" xmlns="http://www.w3.org/2000/svg" p-id="9534" width="512" height="512" xmlns:xlink="http://www.w3.org/1999/xlink"><defs><style type="text/css"></style></defs><path d="M726.399903 726.399903m-297.600096 0a297.600097 297.600097 0 1 0 595.200193 0 297.600097 297.600097 0 1 0-595.200193 0Z" fill="#E1E6E9" p-id="9535"></path><path d="M158.399952 835.198808c0 46.400048-38.399613 84.799662-84.799662 84.799661h582.400322c46.400048 0 84.799662-38.399613 84.799662-84.799661 0-46.400048-38.399613-84.799662-84.799662-84.799662H73.60029c46.400048 0 84.799662 38.399613 84.799662 84.799662z" fill="#FFFFFF" p-id="9536"></path><path d="M73.60029 935.999339c-8.000435 0-16.00087-6.399936-16.00087-16.00087 0-8.000435 6.399936-16.00087 16.00087-16.00087 38.399613 0 70.399291-31.999678 70.399291-70.399291s-31.999678-70.399291-70.399291-70.399291c-8.000435 0-16.00087-6.399936-16.00087-16.00087 0-8.000435 6.399936-16.00087 16.00087-16.00087h582.400322c56.000983 0 100.800532 44.799549 100.800532 100.800532s-44.799549 100.800532-100.800532 100.800531l-582.400322 3.200999z m73.60029-171.199822c17.599307 17.599307 27.200242 43.199049 27.200242 70.399291 0 27.200242-11.199372 51.199484-27.200242 70.399291h510.400532c38.399613 0 70.399291-31.999678 70.399291-70.399291s-31.999678-70.399291-70.399291-70.399291H147.20058z" fill="#193651" p-id="9537"></path><path d="M16.00087 16.00087h510.400532v734.400338H16.00087z" fill="#FFFFFF" p-id="9538"></path><path d="M526.399339 764.799517H16.00087c-8.000435 0-16.00087-6.399936-16.00087-16.000871V16.00087C0 8.000435 6.399936 0 16.00087 0h510.400532c4.799436 0 8.000435 1.6005 11.199371 4.799436s4.799436 6.399936 4.799436 11.199372V750.399146c0 8.000435-8.000435 14.400371-16.00087 14.400371zM31.999678 734.400338h478.400854V31.999678H31.999678v702.40066z" fill="#193651" p-id="9539"></path><path d="M78.399726 78.399726h384.000258V686.399791H78.399726z" fill="#FDBF5E" p-id="9540"></path><path d="M388.799694 166.400387H153.600516c-8.000435 0-16.00087 6.399936-16.00087 16.00087v110.399404c0 8.000435 6.399936 16.00087 16.00087 16.00087h235.199178c8.000435 0 16.00087-6.399936 16.00087-16.00087V182.399194c0-7.998373-8.000435-15.998808-16.00087-15.998807z" fill="#FFFFFF" p-id="9541"></path><path d="M388.799694 324.800338H153.600516c-17.599307 0-31.999678-14.400371-31.999678-31.999677V182.399194c0-17.599307 14.400371-31.999678 31.999678-31.999677h235.199178c17.599307 0 31.999678 14.400371 31.999678 31.999677v110.399404c0 17.60137-14.400371 32.00174-31.999678 32.00174zM153.600516 182.399194v110.399404h235.199178V182.399194H153.600516z" fill="#193651" p-id="9542"></path><path d="M656.000612 16.00087h-129.59921V750.399146h129.59921c46.400048 0 84.799662 38.399613 84.799662 84.799662V100.800532c1.6005-46.400048-36.801176-84.799662-84.799662-84.799662z" fill="#F16051" p-id="9543"></path><path d="M742.400773 851.199678c-8.000435 0-16.00087-6.399936-16.00087-16.00087 0-38.399613-31.999678-70.399291-70.399291-70.399291h-129.59921c-8.000435 0-16.00087-6.399936-16.00087-16.000871V16.00087c0-8.000435 6.399936-16.00087 16.00087-16.00087h129.59921c56.000983 0 100.800532 44.799549 100.800532 100.800532v734.400338c-0.002062 7.998373-6.401998 15.998808-14.400371 15.998808z m-200.000564-116.79934h113.600403c27.200242 0 51.199484 11.199372 70.399291 27.200242V100.800532c0-38.399613-31.999678-70.399291-70.399291-70.399291h-115.200902v703.999097h1.600499z" fill="#193651" p-id="9544"></path><path d="M678.399355 688.00029c-6.399936 0-14.400371-1.6005-22.400805-1.600499h-67.200355V78.399726h67.200355c12.799871 0 22.400806 9.600935 22.400805 22.400806v587.199758z" fill="#FFFFFF" p-id="9545"></path><path d="M625.599372 851.199678H158.399952c-8.000435 0-16.00087-6.399936-16.00087-16.00087 0-8.000435 6.399936-16.00087 16.00087-16.00087h467.19942c8.000435 0 16.00087 6.399936 16.00087 16.00087 0 8.000435-6.399936 16.00087-16.00087 16.00087zM392.000693 491.200725H148.799017c-8.000435 0-16.00087-6.399936-16.00087-16.00087 0-8.000435 6.399936-16.00087 16.00087-16.00087H391.99863c8.000435 0 16.00087 6.399936 16.00087 16.00087s-6.399936 16.00087-15.998807 16.00087zM270.399855 566.399452H148.799017c-8.000435 0-16.00087-6.399936-16.00087-16.00087s6.399936-16.00087 16.00087-16.00087h121.600838c8.000435 0 16.00087 6.399936 16.00087 16.00087s-6.399936 16.00087-16.00087 16.00087z" fill="#193651" p-id="9546"></path><path d="M726.399903 726.399903m-228.799242 0a228.799243 228.799243 0 1 0 457.598485 0 228.799243 228.799243 0 1 0-457.598485 0Z" fill="#FFFFFF" p-id="9547"></path><path d="M726.399903 969.599517c-134.400709 0-244.800113-108.800967-244.800112-244.800113 0-134.400709 108.800967-244.800113 244.800112-244.800113 134.400709 0 244.800113 108.800967 244.800113 244.800113-1.6005 136.001208-110.399404 244.800113-244.800113 244.800113z m0-456.000049c-116.799339 0-212.800435 95.999033-212.800435 212.800435S609.600564 939.200338 726.399903 939.200338 939.200338 843.199243 939.200338 726.399903s-96.001096-212.800435-212.800435-212.800435z" fill="#193651" p-id="9548"></path><path d="M598.39913 854.400677c31.999678 31.999678 78.399726 52.799984 128.000773 52.799984 99.200032 0 180.800757-81.600725 180.800758-180.800758h-180.800758l-128.000773 128.000774z" fill="#F16051" p-id="9549"></path><path d="M726.399903 545.599146c-99.200032 0-180.800757 81.600725-180.800757 180.800757 0 49.598985 20.800306 95.999033 52.799984 128.000774l128.000773-128.000774v-180.800757z" fill="#2EA2DB" p-id="9550"></path><path d="M726.399903 545.599146v180.800757h180.800758c0-100.800532-81.600725-180.800757-180.800758-180.800757z" fill="#FDBF5E" p-id="9551"></path><path d="M183.999694 222.399307h31.999678v31.999678H183.999694zM254.398985 222.399307h31.999678v31.999678h-31.999678zM326.400838 222.399307h31.999678v31.999678h-31.999678z" fill="#193651" p-id="9552"></path></svg>