<?xml version="1.0" standalone="no"?><!DOCTYPE svg PUBLIC "-//W3C//DTD SVG 1.1//EN" "http://www.w3.org/Graphics/SVG/1.1/DTD/svg11.dtd"><svg t="1592749919858" class="icon" viewBox="0 0 1024 1024" version="1.1" xmlns="http://www.w3.org/2000/svg" p-id="1820" xmlns:xlink="http://www.w3.org/1999/xlink" width="200" height="200"><defs><style type="text/css"></style></defs><path d="M682.1 967.7H605c-18.3 0-33.9-13.5-36.3-31.5-10.2-76.1-75.9-133.4-152.8-133.4s-142.5 57.4-152.8 133.4c-2.4 18-18 31.5-36.3 31.5h-77.1c-58.5 0-106-47.6-106-106v-82.6c0-16.3 11.1-30.8 26.9-35.4 65.8-18.8 111.8-79.7 111.8-148.3S136.4 466 70.6 447.2c-15.9-4.5-26.9-19.1-26.9-35.4v-82.6c0-58.5 47.6-106 106-106h143.9c0.1 0 0.4-0.3 0.1-0.9-6.8-16.2-10.3-33.4-10.3-51.1 0-36.7 14.7-70.9 41.4-96.2 26.6-25.2 61.6-38 98.3-36 66.6 3.6 121.5 58.5 125 125.2 1.1 20.2-2.3 39.8-10.1 58.3-0.2 0.6 0 0.8 0.1 0.9h144c58.5 0 106 47.6 106 106v147.8c0.1 0.2 0.3 0.4 0.8 0.1 18.6-9.5 38.7-14.2 59.6-14.2h0.6c69.1 0.3 128.1 56.5 131.7 125.4 1.9 36.7-10.9 71.6-36.2 98.2-25.3 26.6-59.4 41.3-96.1 41.3-21.1 0-41.3-4.9-60-14.4l-0.4 0.3v147.9c0 58.3-47.6 105.9-106 105.9zM415.9 766.4c95 0 176.2 70.9 188.8 164.9h77.4c38.4 0 69.6-31.2 69.6-69.6V713.8c0-12.9 6.6-24.6 17.5-31.3 11-6.7 24.4-7.2 35.8-1.4 13.5 6.9 28.2 10.4 43.5 10.4 26.6 0 51.4-10.6 69.7-30 18.3-19.3 27.6-44.6 26.3-71.3-2.6-49.9-45.5-90.7-95.6-90.9h-0.4c-15.2 0-29.7 3.5-43.2 10.3-11.6 5.9-25.2 5.4-36.2-1.4-10.9-6.7-17.4-18.3-17.4-31.2V329.2c0-38.4-31.2-69.6-69.6-69.6H538.2c-12.3 0-23.7-6.1-30.4-16.3-6.9-10.4-8.1-23.5-3.2-35 5.6-13.4 8.1-27.6 7.3-42.2-2.6-48.3-42.4-88.2-90.6-90.8-26.7-1.5-52.1 7.9-71.4 26.2-19.3 18.3-30 43.1-30 69.8 0 12.8 2.5 25.3 7.5 37 4.9 11.6 3.7 24.7-3.2 35-6.8 10.2-18.1 16.3-30.4 16.3H149.7c-38.4 0-69.6 31.2-69.6 69.6v82.6c0 0.1 0.2 0.3 0.6 0.4 81.4 23.2 138.2 98.6 138.2 183.2 0 84.7-56.8 160-138.2 183.2-0.4 0.1-0.5 0.3-0.6 0.4v82.6c0 38.4 31.2 69.6 69.6 69.6h77.1c12.9-93.9 94.1-164.8 189.1-164.8z" p-id="1821"></path></svg>