<?xml version="1.0" standalone="no"?><!DOCTYPE svg PUBLIC "-//W3C//DTD SVG 1.1//EN" "http://www.w3.org/Graphics/SVG/1.1/DTD/svg11.dtd"><svg t="1592750271359" class="icon" viewBox="0 0 1024 1024" version="1.1" xmlns="http://www.w3.org/2000/svg" p-id="1472" xmlns:xlink="http://www.w3.org/1999/xlink" width="200" height="200"><defs><style type="text/css"></style></defs><path d="M512 222.586436c-74.807835 0-135.52144 59.810129-135.52144 133.594024s60.683489 133.594024 135.52144 133.594024 135.551556-59.780013 135.551556-133.594024C647.551556 282.396565 586.777719 222.586436 512 222.586436M512 0C312.422093 0 150.609494 149.1037 150.609494 333.081583c-0.030116 184.008 361.390506 690.918417 361.390506 690.918417s361.390506-506.910417 361.390506-690.918417C873.360391 149.163932 711.577907 0 512 0M510.945944 575.002412c-119.770837 0-228.940886-120.885124-228.940886-234.000353 0-113.145344 110.224104-212.979472 229.964826-212.979472S740.880654 228.971002 740.880654 342.08623C740.940886 455.111111 630.746897 575.002412 510.945944 575.002412" p-id="1473"></path></svg>