<?xml version="1.0" standalone="no"?><!DOCTYPE svg PUBLIC "-//W3C//DTD SVG 1.1//EN" "http://www.w3.org/Graphics/SVG/1.1/DTD/svg11.dtd"><svg t="1592751049553" class="icon" viewBox="0 0 1024 1024" version="1.1" xmlns="http://www.w3.org/2000/svg" p-id="2146" xmlns:xlink="http://www.w3.org/1999/xlink" width="200" height="200"><defs><style type="text/css"></style></defs><path d="M1024 524.202667L808.618667 295.566222H627.086222v-79.829333a85.376 85.376 0 0 0-85.290666-85.290667H85.290667A85.376 85.376 0 0 0 0 215.736889v456.519111a85.376 85.376 0 0 0 85.290667 85.290667h59.079111a140.231111 140.231111 0 0 0-1.308445 18.062222c0 76.771556 62.449778 139.235556 139.221334 139.235555s139.221333-62.464 139.221333-139.235555c0-4.963556-0.284444-9.856-0.796444-14.677333h215.239111a138.624 138.624 0 0 0-1.607111 20.010666c0 76.771556 62.464 139.221333 139.235555 139.221334s139.221333-62.449778 139.221333-139.221334c0-6.812444-0.654222-13.454222-1.607111-20.010666H1024V524.202667zM282.282667 860.942222c-47.047111 0-85.333333-38.286222-85.333334-85.333333s38.272-85.333333 85.333334-85.333333 85.333333 38.272 85.333333 85.333333-38.286222 85.333333-85.333333 85.333333z m0-224.554666c-50.417778 0-94.520889 27.022222-118.954667 67.256888H85.290667a31.431111 31.431111 0 0 1-31.388445-31.402666V215.736889a31.431111 31.431111 0 0 1 31.388445-31.388445h456.519111a31.431111 31.431111 0 0 1 31.388444 31.388445v491.306667H403.299556c-23.964444-42.126222-69.176889-70.656-121.016889-70.656zM773.575111 866.275556c-47.047111 0-85.333333-38.272-85.333333-85.333334s38.286222-85.333333 85.333333-85.333333 85.333333 38.286222 85.333333 85.333333-38.286222 85.333333-85.333333 85.333334z m196.536889-159.232h-78.748444c-24.661333-39.168-68.167111-65.322667-117.774223-65.322667s-93.112889 26.154667-117.788444 65.322667h-28.700445V349.454222h158.236445l184.775111 196.138667v161.450667z" p-id="2147"></path></svg>