<?xml version="1.0" standalone="no"?><!DOCTYPE svg PUBLIC "-//W3C//DTD SVG 1.1//EN" "http://www.w3.org/Graphics/SVG/1.1/DTD/svg11.dtd"><svg t="1592751062260" class="icon" viewBox="0 0 1026 1024" version="1.1" xmlns="http://www.w3.org/2000/svg" p-id="2393" xmlns:xlink="http://www.w3.org/1999/xlink" width="200.390625" height="200"><defs><style type="text/css"></style></defs><path d="M130.17088 818.90304V581.12h-40.96v237.78304c0 65.16736 53.01248 118.19008 118.17984 118.19008h220.02688v-40.96H207.39072c-42.57792 0-77.21984-34.65216-77.21984-77.23008zM893.82912 818.90304c0 42.57792-34.64192 77.23008-77.21984 77.23008H588.6976v40.96h227.91168c65.15712 0 118.17984-53.02272 118.17984-118.19008V591.36h-40.96v227.54304zM893.82912 209.68448v221.65504h40.96V209.68448c0-65.16736-53.02272-118.17984-118.17984-118.17984H591.2576v40.96h225.35168c42.57792 0 77.21984 34.64192 77.21984 77.21984zM130.17088 209.68448c0-42.57792 34.64192-77.21984 77.21984-77.21984h222.59712v-40.96H207.39072c-65.16736 0-118.17984 53.01248-118.17984 118.17984v221.65504h40.96V209.68448zM0 493.81376h1024v40.96h-1024z" fill="" p-id="2394"></path></svg>