<?xml version="1.0" standalone="no"?><!DOCTYPE svg PUBLIC "-//W3C//DTD SVG 1.1//EN" "http://www.w3.org/Graphics/SVG/1.1/DTD/svg11.dtd"><svg t="1592749583053" class="icon" viewBox="0 0 1110 1024" version="1.1" xmlns="http://www.w3.org/2000/svg" p-id="1525" xmlns:xlink="http://www.w3.org/1999/xlink" width="216.796875" height="200"><defs><style type="text/css"></style></defs><path d="M42.666667 532.672l0-42.666667 1024 0 0 42.666667L42.666667 532.672zM1002.666667 106.005333c0-23.552-19.093333-42.666667-42.666667-42.666667L725.333333 63.338667 725.333333 20.672l234.666667 0c47.125333 0 85.333333 38.208 85.333333 85.333333l0 256-42.666667 0L1002.666667 106.005333zM106.666667 106.005333l0 256L64 362.005333 64 106.005333c0-47.125333 38.208-85.333333 85.333333-85.333333l234.666667 0 0 42.666667L149.333333 63.338667C125.76 63.338667 106.666667 82.432 106.666667 106.005333zM106.666667 916.672c0 23.573333 19.093333 42.666667 42.666667 42.666667l234.666667 0 0 43.136L149.333333 1002.005333c-47.125333 0-85.333333-38.208-85.333333-85.333333L64 660.672l42.666667 0L106.666667 916.672zM1002.666667 916.672 1002.666667 660.672l42.666667 0 0 256c0 47.125333-35.797333 86.933333-82.922667 86.933333L725.333333 1003.136 725.333333 959.338667l234.666667 0C983.573333 959.338667 1002.666667 940.245333 1002.666667 916.672z" p-id="1526"></path></svg>