<?xml version="1.0" standalone="no"?><!DOCTYPE svg PUBLIC "-//W3C//DTD SVG 1.1//EN" "http://www.w3.org/Graphics/SVG/1.1/DTD/svg11.dtd"><svg t="1592750394192" class="icon" viewBox="0 0 1024 1024" version="1.1" xmlns="http://www.w3.org/2000/svg" p-id="1795" xmlns:xlink="http://www.w3.org/1999/xlink" width="200" height="200"><defs><style type="text/css"></style></defs><path d="M512 934.4c-230.4 0-418.133-187.733-418.133-418.133 0-157.867 89.6-302.934 230.4-375.467 17.066-8.533 38.4 0 46.933 17.067 8.533 17.066 0 38.4-17.067 46.933-119.466 59.733-192 179.2-192 311.467 0 192 157.867 349.866 349.867 349.866s349.867-157.866 349.867-349.866C861.867 384 789.333 264.533 665.6 204.8c-17.067-8.533-25.6-29.867-17.067-46.933 8.534-17.067 29.867-25.6 46.934-17.067 145.066 72.533 230.4 213.333 230.4 375.467C930.133 746.667 742.4 934.4 512 934.4z m0-430.933c-17.067 0-34.133-17.067-34.133-34.134V106.667c0-17.067 17.066-34.134 34.133-34.134s34.133 17.067 34.133 34.134v362.666c0 17.067-17.066 34.134-34.133 34.134z" p-id="1796"></path></svg>