<?xml version="1.0" standalone="no"?><!DOCTYPE svg PUBLIC "-//W3C//DTD SVG 1.1//EN" "http://www.w3.org/Graphics/SVG/1.1/DTD/svg11.dtd"><svg t="1592751095014" class="icon" viewBox="0 0 1024 1024" version="1.1" xmlns="http://www.w3.org/2000/svg" p-id="2639" xmlns:xlink="http://www.w3.org/1999/xlink" width="200" height="200"><defs><style type="text/css"></style></defs><path d="M1024 325.390222V93.084444A93.184 93.184 0 0 0 930.915556 0H93.084444A93.184 93.184 0 0 0 0 93.084444v837.816889A93.198222 93.198222 0 0 0 93.084444 1024h837.816889A93.198222 93.198222 0 0 0 1024 930.901333V485.048889H462.464l145.976889-145.976889-38.101333-38.101333-199.864889 199.836444 199.850666 199.850667 38.101334-38.101334-123.605334-123.619555H970.097778v391.964444a39.239111 39.239111 0 0 1-39.196445 39.196445H93.084444a39.239111 39.239111 0 0 1-39.196444-39.196445V93.084444a39.239111 39.239111 0 0 1 39.196444-39.196444h837.816889a39.239111 39.239111 0 0 1 39.196445 39.196444v232.305778H1024z" p-id="2640"></path></svg>