<?xml version="1.0" standalone="no"?><!DOCTYPE svg PUBLIC "-//W3C//DTD SVG 1.1//EN" "http://www.w3.org/Graphics/SVG/1.1/DTD/svg11.dtd"><svg t="1592750574376" class="icon" viewBox="0 0 1024 1024" version="1.1" xmlns="http://www.w3.org/2000/svg" p-id="2116" xmlns:xlink="http://www.w3.org/1999/xlink" width="200" height="200"><defs><style type="text/css"></style></defs><path d="M503.131894 437.223109l-208.38892-127.047778L294.742973 51.518372c0-12.781187 10.349983-23.154324 23.154324-23.154324s23.154324 10.373137 23.154324 23.154324l0 232.654652 162.080271 98.799503 162.080271-98.799503L665.212165 51.518372c0-12.781187 10.349983-23.154324 23.154324-23.154324s23.154324 10.373137 23.154324 23.154324l0 258.656959L503.131894 437.223109z" p-id="2117"></path><path d="M692.881583 854.903968c-7.849316 0-15.490243-3.982544-19.843256-11.183539-6.598982-10.951995-3.079525-25.168751 7.87247-31.790888l162.844364-98.243799c16.601651-9.678508 29.869079-36.722759 29.869079-60.409633L873.62424 225.731509c0-23.686874-13.267428-50.707971-29.568072-60.224398l-147.72459-101.925336c-10.512063-7.270458-13.151656-21.695602-5.904353-32.207665 7.270458-10.535218 21.672448-13.197965 32.23082-5.881198l146.219559 100.976009c33.018067 19.194935 51.055285 64.716337 51.055285 99.285743l0 427.544601c0 34.569406-18.037219 80.090808-52.560317 100.258225l-162.566512 98.081718C701.078214 853.838869 696.93359 854.903968 692.881583 854.903968z" p-id="2118"></path><path d="M339.546591 854.903968c-3.820464 0-7.687236-0.949327-11.253002-2.940599l-175.903403-98.243799c-32.647598-19.0097-66.036133-61.659966-66.036133-100.466614L86.354053 225.731509c0-38.274098 34.083166-81.827383 65.64251-100.235071l151.591362-100.304534c10.650989-7.062069 25.00667-4.144624 32.091894 6.52952 7.062069 10.674144 4.144624 25.029825-6.52952 32.091894L176.44753 164.812482C153.8026 178.033601 132.662702 207.879525 132.662702 225.731509l0 427.544601c0 17.851984 21.139898 47.697908 42.67342 60.247552l175.50978 98.03541c11.160384 6.251668 15.166083 20.329497 8.937569 31.513036C355.54623 850.643573 347.650605 854.903968 339.546591 854.903968z" p-id="2119"></path><path d="M688.36649 1024c-12.804341 0-23.154324-10.373137-23.154324-23.154324l0-162.080271c0-12.781187 10.349983-23.154324 23.154324-23.154324s23.154324 10.373137 23.154324 23.154324l0 162.080271C711.520814 1013.626863 701.170831 1024 688.36649 1024z" p-id="2120"></path><path d="M341.051622 1024c-12.804341 0-23.154324-10.373137-23.154324-23.154324l0-162.080271c0-12.781187 10.349983-23.154324 23.154324-23.154324s23.154324 10.373137 23.154324 23.154324l0 162.080271C364.205947 1013.626863 353.855964 1024 341.051622 1024z" p-id="2121"></path><path d="M595.749192 722.993782l-185.234596 0c-12.804341 0-23.154324-10.373137-23.154324-23.154324s10.349983-23.154324 23.154324-23.154324l185.234596 0c12.804341 0 23.154324 10.373137 23.154324 23.154324S608.553533 722.993782 595.749192 722.993782z" p-id="2122"></path></svg>