<?xml version="1.0" standalone="no"?><!DOCTYPE svg PUBLIC "-//W3C//DTD SVG 1.1//EN" "http://www.w3.org/Graphics/SVG/1.1/DTD/svg11.dtd"><svg t="1594484190103" class="icon" viewBox="0 0 1024 1024" version="1.1" xmlns="http://www.w3.org/2000/svg" p-id="10117" width="512" height="512" xmlns:xlink="http://www.w3.org/1999/xlink"><defs><style type="text/css"></style></defs><path d="M644.799178 427.199307m-379.200822 0a379.200822 379.200822 0 1 0 758.401644 0 379.200822 379.200822 0 1 0-758.401644 0Z" fill="#F16051" p-id="10118"></path><path d="M16.00087 838.399807v107.200467c0 33.600177 27.200242 62.400918 62.400919 62.400918h571.198888c35.200677 0 62.400918-27.200242 62.400918-62.400918v-107.200467H16.00087z" fill="#FFFFFF" p-id="10119"></path><path d="M649.600677 1024H78.399726C35.200677 1024 0 988.799323 0 945.600274v-107.200467c0-9.600935 6.399936-16.00087 16.00087-16.00087h696.000725c9.600935 0 16.00087 6.399936 16.00087 16.00087v107.200467c-0.002062 43.199049-35.202739 78.399726-78.401788 78.399726z m-617.600999-169.599323v91.199597c0 25.599742 20.800306 46.400048 46.400048 46.400048h571.198888c25.599742 0 46.400048-20.800306 46.400049-46.400048v-91.199597H31.999678z" fill="#193651" p-id="10120"></path><path d="M16.00087 140.800645h696.000725v696.000725H16.00087z" fill="#2EA2DB" p-id="10121"></path><path d="M711.999533 854.400677H16.00087c-9.600935 0-16.00087-6.399936-16.00087-16.00087V140.800645c0-9.600935 6.399936-16.00087 16.00087-16.000871h696.000725c9.600935 0 16.00087 6.399936 16.00087 16.000871v696.000725c-0.002062 9.598872-6.401998 17.599307-16.002932 17.599307zM31.999678 822.398937h663.998985V156.799452H31.999678v665.599485z" fill="#193651" p-id="10122"></path><path d="M78.399726 203.1995h571.198888v571.198889H78.399726zM649.600677 16.00087H78.399726c-35.200677 0-62.400918 28.800741-62.400918 62.400919v62.400918h696.000725V78.399726c0-33.600177-27.200242-62.398856-62.398856-62.398856z" fill="#FFFFFF" p-id="10123"></path><path d="M711.999533 156.799452H16.00087C6.399936 156.799452 0 150.399517 0 140.800645V78.399726C0 35.200677 35.200677 0 78.399726 0h571.198888c43.199049 0 78.399726 35.200677 78.399726 78.399726v62.400919c0.002062 9.598872-6.397873 15.998808-15.998807 15.998807zM31.999678 124.799774h663.998985V78.399726c0-25.599742-20.800306-46.400048-46.400049-46.400048H78.399726c-25.599742 0-46.400048 20.800306-46.400048 46.400048v46.400048z" fill="#193651" p-id="10124"></path><path d="M364.800451 923.199468m-38.399613 0a38.399613 38.399613 0 1 0 76.799226 0 38.399613 38.399613 0 1 0-76.799226 0Z" fill="#CFD0D1" p-id="10125"></path><path d="M435.199742 94.400596h-142.399081c-9.600935 0-16.00087-6.399936-16.00087-16.00087s6.399936-16.00087 16.00087-16.00087h142.399081c9.600935 0 16.00087 6.399936 16.00087 16.00087s-6.399936 16.00087-16.00087 16.00087zM158.399952 460.799484h30.399178v31.999678H158.399952zM158.399952 545.599146h30.399178v31.999678H158.399952zM158.399952 630.398808h30.399178v31.999677H158.399952z" fill="#193651" p-id="10126"></path><path d="M544.000709 496.000161l340.799146 111.999903V220.80087l-340.799146 110.399404z" fill="#FFFFFF" p-id="10127"></path><path d="M884.799855 623.998872h-4.799436L539.19921 511.998969c-6.399936-1.6005-11.199372-8.000435-11.199371-16.00087v-164.799888c0-6.399936 4.799436-12.799871 11.199371-16.00087L879.998356 203.197438c4.799436-1.6005 9.600935 0 14.400371 1.6005 4.799436 3.200999 6.399936 8.000435 6.399936 12.799871v390.400193c0 4.799436-3.200999 9.600935-6.399936 12.799871-3.198937 1.602562-6.399936 3.200999-9.598872 3.200999z m-324.800338-139.198082l308.799468 100.800531V241.599114l-308.799468 100.800532v142.401144z" fill="#193651" p-id="10128"></path><path d="M598.39913 457.600548V369.599887l232.000242-75.200789v240.000676z" fill="#FDBF5E" p-id="10129"></path><path d="M395.199629 331.200274h150.399517v164.799887h-150.399517z" fill="#FFFFFF" p-id="10130"></path><path d="M544.000709 511.998969h-150.399517c-9.600935 0-16.00087-6.399936-16.00087-16.00087v-164.799888c0-9.600935 6.399936-16.00087 16.00087-16.00087h150.399517c9.600935 0 16.00087 6.399936 16.00087 16.00087v164.799888c-0.002062 9.600935-6.401998 16.00087-16.00087 16.00087z m-132.800209-31.999678H527.999839v-132.800209h-118.399839v132.800209h1.6005z" fill="#193651" p-id="10131"></path><path d="M438.400741 377.600322h60.800419v73.60029h-60.800419z" fill="#F16051" p-id="10132"></path><path d="M302.399533 312.000467h91.199597v204.8h-91.199597z" fill="#FFFFFF" p-id="10133"></path><path d="M395.199629 532.799275h-91.199597c-9.600935 0-16.00087-6.399936-16.00087-16.00087v-204.8c0-9.600935 6.399936-16.00087 16.00087-16.00087h91.199597c9.600935 0 16.00087 6.399936 16.000871 16.00087v204.8c0 8.000435-8.000435 16.00087-16.000871 16.00087z m-76.799226-31.999678h59.199919V327.999275h-59.199919v172.800322z" fill="#193651" p-id="10134"></path><path d="M561.600016 660.800048V622.400435l-92.800097-126.400274-92.800096 126.400274v38.399613" fill="#FFFFFF" p-id="10135"></path><path d="M561.600016 676.798856c-9.600935 0-16.00087-6.399936-16.00087-16.00087v-33.600177l-76.799227-103.999469-76.799226 103.999469v33.600177c0 9.600935-6.399936 16.00087-16.00087 16.00087-9.600935 0-16.00087-6.399936-16.00087-16.00087V622.400435c0-3.200999 1.6005-6.399936 3.200999-9.600935l92.800096-126.400273c6.399936-8.000435 19.199807-8.000435 25.599743 0l92.800096 126.400273c1.6005 3.200999 3.200999 6.399936 3.200999 9.600935v38.399613c-0.002062 9.598872-6.401998 15.998808-16.00087 15.998808z" fill="#193651" p-id="10136"></path><path d="M468.799919 676.798856c-9.600935 0-16.00087-6.399936-16.00087-16.00087v-164.799887c0-9.600935 6.399936-16.00087 16.00087-16.00087 9.600935 0 16.00087 6.399936 16.000871 16.00087v164.799887c0 9.600935-6.399936 16.00087-16.000871 16.00087zM760.000081 399.999065H791.999758v27.200242h-31.999677zM699.199662 399.999065h31.999677v27.200242h-31.999677zM636.800806 399.999065h31.999677v27.200242h-31.999677z" fill="#193651" p-id="10137"></path></svg>