<?xml version="1.0" standalone="no"?><!DOCTYPE svg PUBLIC "-//W3C//DTD SVG 1.1//EN" "http://www.w3.org/Graphics/SVG/1.1/DTD/svg11.dtd"><svg t="1592752268651" class="icon" viewBox="0 0 1085 1024" version="1.1" xmlns="http://www.w3.org/2000/svg" p-id="2897" xmlns:xlink="http://www.w3.org/1999/xlink" width="211.9140625" height="200"><defs><style type="text/css"></style></defs><path d="M698.097568 535.993304C679.92676 528.986035 661.304501 523.091031 642.456522 518.197065 677.669515 499.844695 708.932337 474.040149 733.310566 442.785505 770.893673 394.624436 790.757412 336.897888 790.757412 276.056998 790.757412 202.869968 761.864698 134.131998 709.383788 82.411681 656.902879 30.691363 587.154054 2.217382 512.890745 2.217382 438.627435 2.217382 368.878612 30.691363 316.397702 82.411681 263.916792 134.131998 235.024076 202.869968 235.024076 276.056998 235.024076 337.009114 254.887818 394.624436 292.470921 442.785505 316.962012 474.151375 348.224835 499.844695 383.32497 518.197065 346.983351 527.54009 311.883215 540.776043 278.36315 557.904922 228.929518 583.042109 184.236097 615.853923 145.41151 655.450552 106.586923 695.047186 74.75979 740.20514 50.945871 789.812152 26.45478 840.753887 10.8798 895.03241 4.785243 951.201786L3.882345 959.210098 9.751178 964.882649C20.24736 975.115481 31.082129 985.014639 42.142622 994.468894L68.439507 1017.047871 68.778094 1010.930411 68.778094 1006.370129C68.778094 764.452515 267.754105 568.360212 513.229331 568.360212 555.101197 568.360212 595.73158 574.032763 634.104718 584.710505 653.065565 565.913228 674.622241 549.451708 698.097568 535.993304L698.097568 535.993304ZM364.364125 422.431058C324.636641 383.279334 302.854241 331.336563 302.854241 276.056998 302.854241 220.777433 324.749503 168.723436 364.364125 129.682938 404.09161 90.531214 456.798245 69.064501 512.890745 69.064501 568.983245 69.064501 621.802743 90.64244 661.417364 129.682938 701.144847 168.834662 722.927249 220.777433 722.927249 276.056998 722.927249 331.336563 701.03199 383.39056 661.417364 422.431058 621.802743 461.471555 568.983245 483.049495 512.890745 483.049495 456.798245 483.049495 404.09161 461.471555 364.364125 422.431058L364.364125 422.431058ZM1053.952 810.945187 1053.952 778.911955C1053.952 763.006566 1064.899632 749.436934 1079.684578 745.321556 1073.702882 718.293516 1062.868113 692.933879 1048.19603 670.354902 1034.65257 677.695849 1017.271796 675.804997 1005.872718 664.571127L982.848831 641.880919C971.449754 630.647043 969.418234 613.518167 976.979998 600.170987 954.06898 585.711544 928.336402 575.0338 900.910893 569.138797 896.622134 583.709467 882.965811 594.498436 866.826517 594.498436L834.322215 594.498436C818.182921 594.498436 804.413735 583.709467 800.237833 569.138797 772.81233 575.033801 747.079752 585.711544 724.168734 600.170987 731.617635 613.518167 729.698979 630.647043 718.299901 641.880919L695.276014 664.571127C683.876936 675.804997 666.496163 677.80708 652.952702 670.354902 638.28062 692.933879 627.44585 718.293522 621.464154 745.321556 636.2491 749.548165 647.196732 763.006566 647.196732 778.911955L647.196732 810.945187C647.196732 826.850575 636.2491 840.420207 621.464154 844.535585 627.44585 871.563619 638.28062 896.923262 652.952702 919.50224 666.496163 912.161292 683.876936 914.052138 695.276014 925.286014L718.299901 947.976222C729.698979 959.210092 731.730498 976.338974 724.168734 989.686152 747.079752 1004.145598 772.81233 1014.82334 800.237833 1020.718345 804.526598 1006.147674 818.182921 995.358702 834.322215 995.358702L866.826517 995.358702C882.965811 995.358702 896.734997 1006.147674 900.910893 1020.718345 928.336402 1014.82334 954.06898 1004.145598 976.979998 989.686152 969.531097 976.338974 971.449754 959.210098 982.848831 947.976222L1005.872718 925.286014C1017.271796 914.052138 1034.65257 912.050062 1048.19603 919.50224 1062.868113 896.923262 1073.702882 871.563619 1079.684578 844.535585 1064.899632 840.420207 1053.952 826.850575 1053.952 810.945187L1053.952 810.945187ZM850.574366 915.609311C782.969922 915.609311 728.11891 861.553236 728.11891 794.928568 728.11891 728.303905 782.969922 674.247831 850.574366 674.247831 918.178804 674.247831 973.029822 728.303905 973.029822 794.928574 973.029822 861.553236 918.17881 915.609311 850.574366 915.609311L850.574366 915.609311ZM768.07212 794.928568C768.07212 839.832943 805.009631 876.235131 850.574366 876.235131 896.139101 876.235131 933.076613 839.832943 933.076613 794.928568 933.076613 750.024192 896.139101 713.622004 850.574366 713.622004 805.009631 713.622004 768.07212 750.024192 768.07212 794.928568L768.07212 794.928568Z" p-id="2898"></path></svg>