<?xml version="1.0" standalone="no"?><!DOCTYPE svg PUBLIC "-//W3C//DTD SVG 1.1//EN" "http://www.w3.org/Graphics/SVG/1.1/DTD/svg11.dtd"><svg t="1592750242424" class="icon" viewBox="0 0 1024 1024" version="1.1" xmlns="http://www.w3.org/2000/svg" p-id="1349" xmlns:xlink="http://www.w3.org/1999/xlink" width="200" height="200"><defs><style type="text/css"></style></defs><path d="M484.739408 375.505062 484.227472 374.993126C478.532183 379.152606 473.796775 382.096238 470.149231 383.824022L377.296838 427.466567l55.097113 55.097113 43.450569-93.108361C477.252343 386.575678 480.259968 381.904262 484.739408 375.505062zM1009.409824 569.208849 440.840895 0.63992l0-0.63992-440.840895 0 0 440.840895 0.63992 0 568.568929 568.568929c19.453568 19.453568 51.065617 19.453568 70.519185 0l369.68179-369.68179C1028.863392 620.210474 1028.863392 588.662417 1009.409824 569.208849zM95.348081 174.058243c-21.693288-21.693288-21.693288-56.952881 0-78.646169 21.693288-21.693288 56.952881-21.693288 78.646169 0 21.693288 21.693288 21.693288 56.952881 0 78.646169C152.300962 195.751531 117.105362 195.751531 95.348081 174.058243zM247.713036 407.309086c-18.173728-2.751656-36.539433-13.43832-55.097113-31.996C186.088739 368.849894 179.433571 360.338958 172.522435 349.908261 165.675291 339.413573 161.643795 330.838645 160.363955 324.247469l24.188976-24.188976c0.63992 9.406824 3.775528 19.709536 9.342832 30.972128 5.567304 11.262592 12.15848 20.605424 19.709536 28.220472 23.03712 23.03712 42.746657 26.364704 59.128609 9.982752 4.607424-4.607424 7.487064-9.982752 8.702912-16.125984 1.215848-6.143232 1.087864-12.7984-0.447944-19.901512C279.51706 325.975253 275.805524 313.560805 269.790276 295.835021c-8.254968-24.63692-11.51856-43.130609-9.726784-55.417073 1.791776-12.286464 7.231096-22.909136 16.253968-31.932008 13.630296-13.630296 29.948256-19.005624 48.889889-15.998 18.941632 2.943632 36.731409 12.7984 53.433321 29.500312C394.95863 238.24222 405.005374 252.192476 408.652918 263.775028L385.551806 286.87614C382.48019 270.174228 373.393326 254.24022 358.291214 239.074116 348.244469 229.027372 337.941757 222.948131 327.447069 220.836395 316.888389 218.724659 307.929509 221.412323 300.378453 228.899388 293.787277 235.554556 290.523685 243.169604 290.779653 251.68054c0.191976 8.574928 4.031496 23.741032 11.454568 45.562305 8.382952 23.805024 11.966504 42.810649 10.686664 56.952881-1.27984 14.142232-6.71916 25.980752-16.31796 35.643545C282.204724 404.23747 265.886764 410.124734 247.713036 407.309086zM392.206974 569.464817l28.220472-61.688289L352.019998 439.369079 291.291589 468.485439 267.870516 445.064367l226.787652-101.68329L517.311336 366.098238 415.628046 592.885889 392.206974 569.464817zM526.014248 703.208099 439.369079 616.626922l164.203475-164.203475L624.817898 473.604799 479.364079 619.058618l65.399825 65.399825L526.014248 703.208099zM639.152106 816.345957l-88.308961-88.308961 164.203475-164.203475 84.597425 84.597425L780.766404 667.308586l-63.416073-63.416073-52.601425 52.601425 58.744657 58.744657-18.749656 18.749656-58.744657-58.744657-55.225097 55.225097 67.127609 67.127609L639.152106 816.345957z" p-id="1350"></path></svg>