<?xml version="1.0" standalone="no"?><!DOCTYPE svg PUBLIC "-//W3C//DTD SVG 1.1//EN" "http://www.w3.org/Graphics/SVG/1.1/DTD/svg11.dtd"><svg t="1594484120320" class="icon" viewBox="0 0 1024 1024" version="1.1" xmlns="http://www.w3.org/2000/svg" p-id="9755" width="512" height="512" xmlns:xlink="http://www.w3.org/1999/xlink"><defs><style type="text/css"></style></defs><path d="M376 64v208h272v80H376v208h576V64z" fill="#FFC252" p-id="9756"></path><path d="M1016 688H376v-32h608V32H376V0h640z" fill="#34303D" p-id="9757"></path><path d="M376 592h576v32H376zM616 464h32v32h-32zM680 464h32v32h-32zM744 464h32v32h-32zM696 880c-44.112 0-80-35.888-80-80s35.888-80 80-80 80 35.888 80 80-35.888 80-80 80z m0-128c-26.464 0-48 21.536-48 48s21.536 48 48 48 48-21.536 48-48-21.536-48-48-48zM824 1024h-32v-48c0-8.544-3.328-16.576-9.376-22.624S768.544 944 760 944h-128c-8.544 0-16.576 3.328-22.624 9.376S600 967.456 600 976v48h-32v-48c0-17.088 6.656-33.152 18.752-45.248S614.912 912 632 912h128c17.088 0 33.152 6.656 45.248 18.752S824 958.912 824 976v48zM504 880c-44.112 0-80-35.888-80-80s35.888-80 80-80 80 35.888 80 80-35.888 80-80 80z m0-128c-26.464 0-48 21.536-48 48s21.536 48 48 48 48-21.536 48-48-21.536-48-48-48zM408 1024h-32v-48c0-17.088 6.656-33.152 18.752-45.248 12.08-12.096 28.16-18.752 45.248-18.752h96v32h-96c-8.544 0-16.576 3.328-22.624 9.376S408 967.456 408 976v48zM888 880c-44.112 0-80-35.888-80-80s35.888-80 80-80 80 35.888 80 80-35.888 80-80 80z m0-128c-26.464 0-48 21.536-48 48s21.536 48 48 48 48-21.536 48-48-21.536-48-48-48zM1016 1024h-32v-48c0-8.544-3.328-16.576-9.376-22.624S960.544 944 952 944h-96v-32h96c17.088 0 33.152 6.656 45.248 18.752S1016 958.912 1016 976v48z" fill="#34303D" p-id="9758"></path><path d="M280 272c0 35.344-28.656 64-64 64s-64-28.656-64-64H120c-24.56 0-49.136 9.376-67.872 28.128C33.376 318.864 24 343.44 24 368v224h80v96h224V352h240v-80H280z" fill="#57DCF2" p-id="9759"></path><path d="M216 224c-61.76 0-112-50.24-112-112S154.24 0 216 0s112 50.24 112 112-50.24 112-112 112z m0-192c-44.112 0-80 35.888-80 80s35.888 80 80 80 80-35.888 80-80-35.888-80-80-80zM88 592h32v432H88zM200 720h32v304h-32z" fill="#34303D" p-id="9760"></path><path d="M344 1024h-32V336h320v-48H120c-21.36 0-41.456 8.32-56.56 23.44C48.32 326.544 40 346.64 40 368v288h64v32H8V368c0-29.92 11.664-58.032 32.816-79.184S90.08 256 120 256h544v112H344v656z" fill="#34303D" p-id="9761"></path><path d="M200 384h32v32h-32zM200 448h32v32h-32z" fill="#34303D" p-id="9762"></path></svg>