<?xml version="1.0" standalone="no"?><!DOCTYPE svg PUBLIC "-//W3C//DTD SVG 1.1//EN" "http://www.w3.org/Graphics/SVG/1.1/DTD/svg11.dtd"><svg t="1592749259557" class="icon" viewBox="0 0 1027 1024" version="1.1" xmlns="http://www.w3.org/2000/svg" p-id="1868" xmlns:xlink="http://www.w3.org/1999/xlink" width="200.5859375" height="200"><defs><style type="text/css"></style></defs><path d="M523.458494 415.431507A97.268571 97.268571 0 1 1 426.189923 512.060153a97.268571 97.268571 0 0 1 97.268571-96.628646m0-63.992481A161.261052 161.261052 0 1 0 684.719545 512.060153a161.261052 161.261052 0 0 0-161.261051-160.621127z" p-id="1869"></path><path d="M541.376388 64.112787l26.236917 92.149172L575.932328 192.097749l33.916015 10.238796a308.443758 308.443758 0 0 1 63.992481 28.156692l31.356315 17.917895 31.996241-17.917895 79.990601-44.794737 23.677218 23.677218-44.794737 79.990601-17.917894 31.996241 18.557819 31.356316A308.443758 308.443758 0 0 1 831.902251 425.670304l9.598873 34.555939 34.555939 10.238797 83.83015 24.957068v30.716391l-90.869323 25.596992-34.555939 9.598872-9.598872 35.195865a323.801953 323.801953 0 0 1-26.876842 63.992481l-15.998121 30.71639 16.638045 30.076466 46.714511 83.83015-23.677217 23.677218-78.070827-42.874962-29.436541-17.917895-31.996241 19.197745a319.962404 319.962404 0 0 1-74.231278 33.27609L575.932328 832.022557l-9.598872 33.27609L538.816689 960.007519h-34.55594l-24.317142-85.749924-10.238797-35.83579-35.83579-6.399248a319.962404 319.962404 0 0 1-83.83015-33.27609L319.962404 778.268873l-31.99624 17.917895-79.990601 44.794737-23.677218-23.677218 44.794737-79.990601 17.917894-31.996241-18.557819-31.356315a309.083683 309.083683 0 0 1-31.356316-74.871203l-9.598872-34.55594-34.55594-10.238797L63.992481 528.698198v-33.916015l88.949548-25.596992 34.55594-9.598872 9.598872-34.55594a319.962404 319.962404 0 0 1 35.835789-83.190225l19.197745-31.356316-17.27797-31.99624L191.977443 199.776846l23.677218-23.677218 83.83015 46.714511 30.076466 16.638045 30.71639-15.99812A331.481051 331.481051 0 0 1 437.068644 192.097749l36.475715-6.399249 10.238796-35.835789L507.460373 64.112787h33.916015m18.55782-63.992481h-70.391729A39.675338 39.675338 0 0 0 447.947366 30.196772l-26.236917 101.748044a394.833607 394.833607 0 0 0-90.229398 34.55594l-99.82827-55.673458a42.874962 42.874962 0 0 0-19.197744-4.479474 39.675338 39.675338 0 0 0-28.156692 11.518647l-49.27421 49.27421a40.315263 40.315263 0 0 0-6.399248 48.634285l49.27421 92.789098a383.954885 383.954885 0 0 0-42.874962 99.188345l-104.947669 30.076466a39.675338 39.675338 0 0 0-30.076466 38.395489v70.391729a39.675338 39.675338 0 0 0 30.076466 38.395488l104.307744 30.716391A372.436239 372.436239 0 0 0 172.139774 704.037596l-54.393609 96.628646a41.595113 41.595113 0 0 0 7.039173 47.354436l49.27421 49.27421a40.955188 40.955188 0 0 0 28.796616 11.518646 37.115639 37.115639 0 0 0 19.837669-5.759323l97.268571-51.193985a383.954885 383.954885 0 0 0 101.10812 39.675339l26.876842 102.387969a39.675338 39.675338 0 0 0 38.395489 30.076466h70.391729a39.675338 39.675338 0 0 0 38.395488-30.076466l30.716391-108.787218a383.954885 383.954885 0 0 0 88.949548-40.315262l94.068947 51.833909a42.874962 42.874962 0 0 0 19.197745 4.479474 39.675338 39.675338 0 0 0 28.156691-11.518647l49.274211-49.27421a40.315263 40.315263 0 0 0 6.399248-48.634286l-55.033534-98.54842a383.954885 383.954885 0 0 0 31.99624-80.630526l102.38797-29.436541a34.55594 34.55594 0 0 0 24.317143-7.039173 37.115639 37.115639 0 0 0 8.319022-28.156692v-70.391729a39.675338 39.675338 0 0 0-30.076466-38.395488l-104.307744-30.076466A372.436239 372.436239 0 0 0 854.939545 320.08271l54.393608-96.628646a41.595113 41.595113 0 0 0-7.039173-47.354436L853.01977 128.105268a40.955188 40.955188 0 0 0-28.796616-11.518647 37.115639 37.115639 0 0 0-19.837669 5.759323l-95.348797 53.753684a371.796314 371.796314 0 0 0-79.990601-34.555939L598.329696 30.196772a39.675338 39.675338 0 0 0-38.395488-30.076466z" p-id="1870"></path><path d="M301.404585 676.520829a31.99624 31.99624 0 0 1-22.397368-9.598872 200.93639 200.93639 0 0 1-45.434662-70.391729 215.654661 215.654661 0 0 1-14.078346-80.630526 219.494209 219.494209 0 0 1 15.998121-80.630526 31.99624 31.99624 0 1 1 58.873082 24.317143 156.781578 156.781578 0 0 0-11.518646 57.593232 151.66218 151.66218 0 0 0 10.238796 58.873083 137.583834 137.583834 0 0 0 31.356316 47.99436 31.99624 31.99624 0 0 1-22.397368 54.393609zM302.684435 395.593838a31.99624 31.99624 0 0 1-29.436542-44.794737A209.255412 209.255412 0 0 1 288.606089 320.08271a31.99624 31.99624 0 1 1 53.753684 34.55594 133.744285 133.744285 0 0 0-10.238797 19.837669 31.99624 31.99624 0 0 1-29.436541 21.117519z" p-id="1871"></path></svg>