<?xml version="1.0" standalone="no"?><!DOCTYPE svg PUBLIC "-//W3C//DTD SVG 1.1//EN" "http://www.w3.org/Graphics/SVG/1.1/DTD/svg11.dtd"><svg t="1592751025867" class="icon" viewBox="0 0 1024 1024" version="1.1" xmlns="http://www.w3.org/2000/svg" p-id="1776" xmlns:xlink="http://www.w3.org/1999/xlink" width="200" height="200"><defs><style type="text/css"></style></defs><path d="M773.5808 581.12c-95.32416 0-176.4352 61.05088-206.8992 146.0224l-137.3184-83.32288a218.34752 218.34752 0 0 0 13.824-76.01152c0-35.88096-8.63232-70.4-24.73984-101.33504l171.65312-123.07456c39.40352 59.53536 106.89536 98.93888 183.48032 98.93888 121.2928 0 219.9552-98.67264 219.9552-219.9552S894.86336 2.42688 773.5808 2.42688s-219.9552 98.67264-219.9552 219.9552c0 29.97248 6.07232 58.54208 16.96768 84.60288L396.11392 432.0768a222.81216 222.81216 0 0 0-17.36704-19.79392 218.48064 218.48064 0 0 0-155.53536-64.43008C101.92896 347.8528 3.25632 446.52544 3.25632 567.808c0 121.2928 98.67264 219.9552 219.9552 219.9552 79.90272 0 149.78048-42.9568 188.30336-106.8544l144.75264 87.82848c-1.56672 10.58816-2.65216 21.32992-2.65216 32.33792 0 121.2928 98.67264 219.9552 219.9552 219.9552s219.9552-98.67264 219.9552-219.9552-98.65216-219.9552-219.94496-219.9552z m0-537.74336c98.70336 0 178.9952 80.30208 178.9952 178.9952s-80.30208 178.9952-178.9952 178.9952-178.9952-80.30208-178.9952-178.9952 80.29184-178.9952 178.9952-178.9952zM223.21152 746.81344c-98.70336 0-178.9952-80.30208-178.9952-178.9952s80.30208-178.9952 178.9952-178.9952c47.81056 0 92.76416 18.61632 126.57664 52.4288a177.80736 177.80736 0 0 1 52.4288 126.5664c0 98.69312-80.30208 178.9952-179.00544 178.9952z m550.36928 233.2672c-98.70336 0-178.9952-80.30208-178.9952-178.9952s80.30208-178.9952 178.9952-178.9952 178.9952 80.30208 178.9952 178.9952-80.29184 178.9952-178.9952 178.9952z" fill="" p-id="1777"></path></svg>