<?xml version="1.0" standalone="no"?><!DOCTYPE svg PUBLIC "-//W3C//DTD SVG 1.1//EN" "http://www.w3.org/Graphics/SVG/1.1/DTD/svg11.dtd"><svg t="1592749942368" class="icon" viewBox="0 0 1024 1024" version="1.1" xmlns="http://www.w3.org/2000/svg" p-id="1953" xmlns:xlink="http://www.w3.org/1999/xlink" width="200" height="200"><defs><style type="text/css"></style></defs><path d="M505.5 1007.7c-94.4 0-185.8-30.3-262.7-87.9-94-70.4-154.9-173.2-171.6-289.5-16.7-116.3 12.9-232.1 83.4-326 70.4-94 173.2-154.9 289.5-171.6 29.3-4.2 59.1-5.5 88.4-3.8 11.5 0.7 20.3 10.6 19.6 22.1-0.7 11.5-10.6 20.4-22.1 19.6-26.6-1.5-53.5-0.4-80.1 3.4-105.2 15.1-198.3 70.2-262 155.3-63.7 85.1-90.5 189.9-75.4 295.1s70.2 198.3 155.3 262c85.1 63.7 189.9 90.5 295.1 75.4 105.2-15.1 198.3-70.2 262-155.3 63.7-85.1 90.5-189.9 75.4-295.1-8.2-57-27.9-110.2-58.8-158.3-6.2-9.7-3.4-22.6 6.3-28.9 9.7-6.2 22.6-3.4 28.9 6.3 34.1 53.1 55.9 112 65 174.9 16.7 116.3-12.9 232.1-83.4 326-70.4 94-173.2 154.9-289.5 171.6-21.1 3.2-42.3 4.7-63.3 4.7z" p-id="1954"></path><path d="M506.4 808.9c-32.6 0-65.1-6.6-95.9-19.9C350.9 763.4 305 716.1 281 655.9c-24-60.2-23-126.1 2.6-185.7 25.6-59.5 72.9-105.5 133.1-129.4 15.2-6 31-10.6 46.9-13.4 11.4-2 22.2 5.5 24.3 16.9 2 11.4-5.5 22.2-16.9 24.3-13.2 2.4-26.3 6.1-38.9 11.1-49.8 19.8-89 57.9-110.2 107.2-21.2 49.3-22 103.8-2.2 153.7 19.8 49.8 57.9 89 107.2 110.2 49.3 21.2 103.9 22 153.7 2.2 49.8-19.8 89-57.9 110.2-107.2 21.2-49.3 22-103.8 2.2-153.7-10.7-27-26.7-50.8-47.5-70.7-8.3-8-8.6-21.2-0.6-29.5s21.2-8.6 29.5-0.6c25.1 24.1 44.5 52.8 57.4 85.4 24 60.2 23 126.1-2.6 185.7-25.6 59.5-72.9 105.5-133.1 129.4-29 11.3-59.4 17.1-89.7 17.1z" p-id="1955"></path><path d="M506.4 646c-11.5 0-20.8-9.3-20.9-20.8 0-4.5 0.1-112.3 47.3-231.5 63.3-159.7 181.3-262 341.3-295.9 11.3-2.4 22.4 4.8 24.8 16.1 2.4 11.3-4.8 22.4-16.1 24.8C735 169.9 630.3 260.9 571.7 409.1c-44.3 111.8-44.4 214.9-44.4 216 0.1 11.5-9.3 20.8-20.9 20.9 0.1 0 0 0 0 0z" p-id="1956"></path><path d="M828.3 246c-2.9 0-5.8-0.6-8.6-1.9-10.5-4.8-15.1-17.2-10.3-27.7l47-103.4c4.8-10.5 17.2-15.1 27.7-10.4 10.5 4.8 15.1 17.2 10.3 27.7l-47.1 103.4c-3.5 7.8-11.1 12.3-19 12.3z" p-id="1957"></path><path d="M876.2 137.4c-2.8 0-5.7-0.6-8.4-1.8l-104-45.9c-10.6-4.7-15.3-17-10.7-27.5 4.7-10.6 17-15.3 27.5-10.7l104 45.9c10.6 4.7 15.3 17 10.7 27.5-3.4 7.9-11 12.5-19.1 12.5z" p-id="1958"></path></svg>