<?xml version="1.0" standalone="no"?><!DOCTYPE svg PUBLIC "-//W3C//DTD SVG 1.1//EN" "http://www.w3.org/Graphics/SVG/1.1/DTD/svg11.dtd"><svg t="1594484546096" class="icon" viewBox="0 0 1024 1024" version="1.1" xmlns="http://www.w3.org/2000/svg" p-id="11303" width="512" height="512" xmlns:xlink="http://www.w3.org/1999/xlink"><defs><style type="text/css"></style></defs><path d="M511.998969 511.998969m-511.998969 0a511.998969 511.998969 0 1 0 1023.997938 0 511.998969 511.998969 0 1 0-1023.997938 0Z" fill="#E1E6E9" p-id="11304"></path><path d="M511.998969 511.998969m-406.399001 0a406.399001 406.399001 0 1 0 812.798002 0 406.399001 406.399001 0 1 0-812.798002 0Z" fill="#FFFFFF" p-id="11305"></path><path d="M511.998969 934.39884c-232.000242 0-422.399871-190.399629-422.399871-422.399871s190.399629-422.399871 422.399871-422.399871 422.399871 188.79913 422.399871 422.399871c0 232.000242-190.399629 422.399871-422.399871 422.399871z m0-812.798002c-214.400935 0-390.400193 175.999259-390.400194 390.400193s175.999259 390.400193 390.400194 390.400194 390.400193-175.999259 390.400193-390.400194S726.399903 121.600838 511.998969 121.600838z" fill="#193651" p-id="11306"></path><path d="M247.999049 494.399662h31.999678V527.999839h-31.999678zM743.99921 494.399662h31.999678V527.999839h-31.999678zM494.399662 247.999049H527.999839v31.999678h-33.600177zM494.399662 743.99921H527.999839v31.999678h-33.600177zM711.630345 337.094897l-22.625618 22.625618-23.759993-23.759993 22.627681-22.625618zM358.757328 688.084853l-22.627681 22.62768-23.759992-23.759993 22.62768-22.625618zM710.696033 687.855915l-23.759993 23.759993-22.625618-22.627681 23.759993-23.759993zM359.689578 335.028273l-23.759993 23.759993-22.625618-22.627681 23.759993-23.759993z" fill="#193651" p-id="11307"></path><path d="M567.999952 492.799162h-113.600403c-41.600612 0-75.20079 33.600177-75.20079 75.20079v83.199162h262.39942v-83.199162c1.602562-41.600612-31.997615-75.20079-73.598227-75.20079z" fill="#4FBF9F" p-id="11308"></path><path d="M511.998969 406.399001m-70.399291 0a70.399291 70.399291 0 1 0 140.798582 0 70.399291 70.399291 0 1 0-140.798582 0Z" fill="#FDBF5E" p-id="11309"></path><path d="M500.799597 115.200902m-71.99979 0a71.999791 71.999791 0 1 0 143.999581 0 71.999791 71.999791 0 1 0-143.999581 0Z" fill="#2EA2DB" p-id="11310"></path><path d="M500.799597 203.1995c-48.000548 0-88.000661-40.000113-88.00066-88.00066s40.000113-88.000661 88.00066-88.000661 88.000661 40.000113 88.000661 88.000661c0 49.601047-40.000113 88.000661-88.000661 88.00066z m0-143.999581c-30.399178 0-56.000983 25.599742-56.000983 56.000983s25.599742 56.000983 56.000983 56.000983c30.399178 0 56.000983-25.599742 56.000983-56.000983s-25.599742-56.000983-56.000983-56.000983z" fill="#193651" p-id="11311"></path><path d="M500.799597 908.799098m-71.99979 0a71.999791 71.999791 0 1 0 143.999581 0 71.999791 71.999791 0 1 0-143.999581 0Z" fill="#2EA2DB" p-id="11312"></path><path d="M500.799597 996.799758c-48.000548 0-88.000661-40.000113-88.00066-88.00066s40.000113-88.000661 88.00066-88.000661 88.000661 40.000113 88.000661 88.000661-40.000113 88.000661-88.000661 88.00066z m0-143.999581c-30.399178 0-56.000983 25.599742-56.000983 56.000983s25.599742 56.000983 56.000983 56.000983c30.399178 0 56.000983-25.599742 56.000983-56.000983s-25.599742-56.000983-56.000983-56.000983z" fill="#193651" p-id="11313"></path><path d="M720.185593 232.022929a71.999791 71.999791 0 1 0 143.999581 0 71.999791 71.999791 0 1 0-143.999581 0Z" fill="#FFFFFF" p-id="11314"></path><path d="M729.59884 294.399098c-35.200677-35.200677-35.200677-89.599098 0-124.799775s89.599098-35.200677 124.799774 0 35.200677 89.599098 0 124.799775c-33.598115 33.600177-89.599098 33.600177-124.799774 0z m22.400806-102.398969c-22.400806 22.400806-22.400806 57.59942 0 80.000225 20.800306 20.800306 57.59942 20.800306 80.000225 0 22.400806-22.400806 22.400806-57.59942 0-80.000225s-57.59942-22.400806-80.000225 0z" fill="#193651" p-id="11315"></path><path d="M159.816889 791.911071a71.999791 71.999791 0 1 0 143.999581 0 71.999791 71.999791 0 1 0-143.999581 0Z" fill="#FFFFFF" p-id="11316"></path><path d="M169.599323 854.400677c-35.200677-35.200677-35.200677-89.599098 0-124.799775s89.599098-35.200677 124.799775 0c33.600177 35.200677 33.600177 89.599098 0 124.799775-35.198614 35.198614-91.199597 35.198614-124.799775 0z m22.400806-102.401031c-22.400806 22.400806-22.400806 57.59942 0 80.000225 20.800306 20.800306 57.59942 20.800306 80.000225 0 22.400806-22.400806 22.400806-57.59942 0-80.000225-22.400806-20.800306-57.59942-20.800306-80.000225 0z" fill="#193651" p-id="11317"></path><path d="M908.799098 511.998969m-71.999791 0a71.999791 71.999791 0 1 0 143.999581 0 71.999791 71.999791 0 1 0-143.999581 0Z" fill="#F16051" p-id="11318"></path><path d="M908.799098 599.999629c-48.000548 0-88.000661-40.000113-88.000661-88.00066s40.000113-88.000661 88.000661-88.000661 88.000661 40.000113 88.00066 88.000661-40.000113 88.000661-88.00066 88.00066z m0-143.999581c-30.399178 0-56.000983 25.599742-56.000983 56.000983 0 30.399178 25.599742 56.000983 56.000983 56.000983s56.000983-25.599742 56.000983-56.000983-25.599742-56.000983-56.000983-56.000983z" fill="#193651" p-id="11319"></path><path d="M115.200902 511.998969m-71.99979 0a71.999791 71.999791 0 1 0 143.999581 0 71.999791 71.999791 0 1 0-143.999581 0Z" fill="#F16051" p-id="11320"></path><path d="M115.200902 599.999629c-48.000548 0-88.000661-40.000113-88.00066-88.00066s40.000113-88.000661 88.00066-88.000661 88.000661 40.000113 88.000661 88.000661-38.401676 88.000661-88.000661 88.00066z m0-143.999581c-30.399178 0-56.000983 25.599742-56.000983 56.000983 0 30.399178 25.599742 56.000983 56.000983 56.000983s56.000983-25.599742 56.000983-56.000983c-0.002062-30.401241-24.001305-56.000983-56.000983-56.000983z" fill="#193651" p-id="11321"></path><path d="M719.905093 792.160633a71.999791 71.999791 0 1 0 143.999581 0 71.999791 71.999791 0 1 0-143.999581 0Z" fill="#FDBF5E" p-id="11322"></path><path d="M729.59884 854.400677c-35.200677-35.200677-35.200677-89.599098 0-124.799775s89.599098-35.200677 124.799774 0 35.200677 89.599098 0 124.799775c-33.598115 35.198614-89.599098 35.198614-124.799774 0z m22.400806-102.401031c-22.400806 22.400806-22.400806 57.59942 0 80.000225 20.800306 20.800306 57.59942 20.800306 80.000225 0 22.400806-22.400806 22.400806-57.59942 0-80.000225-22.400806-20.800306-57.59942-20.800306-80.000225 0z" fill="#193651" p-id="11323"></path><path d="M160.080889 231.808429a71.999791 71.999791 0 1 0 143.999581 0 71.999791 71.999791 0 1 0-143.999581 0Z" fill="#FDBF5E" p-id="11324"></path><path d="M169.599323 294.399098c-35.200677-35.200677-35.200677-89.599098 0-124.799775s89.599098-35.200677 124.799775 0c33.600177 33.600177 33.600177 89.599098 0 124.799775-35.198614 33.600177-91.199597 33.600177-124.799775 0z m22.400806-102.398969c-22.400806 22.400806-22.400806 57.59942 0 80.000225 20.800306 20.800306 57.59942 20.800306 80.000225 0 22.400806-22.400806 22.400806-57.59942 0-80.000225-22.400806-22.400806-57.59942-22.400806-80.000225 0z" fill="#193651" p-id="11325"></path></svg>