<?xml version="1.0" standalone="no"?><!DOCTYPE svg PUBLIC "-//W3C//DTD SVG 1.1//EN" "http://www.w3.org/Graphics/SVG/1.1/DTD/svg11.dtd"><svg t="1594484430313" class="icon" viewBox="0 0 1024 1024" version="1.1" xmlns="http://www.w3.org/2000/svg" p-id="10862" width="512" height="512" xmlns:xlink="http://www.w3.org/1999/xlink"><defs><style type="text/css"></style></defs><path d="M124.799774 166.400387h883.199356v841.598743H124.799774z" fill="#2EA2DB" p-id="10863"></path><path d="M1007.99913 1024H124.799774c-9.600935 0-16.00087-6.399936-16.00087-16.00087V166.400387c0-9.600935 6.399936-16.00087 16.00087-16.00087h883.199356c9.600935 0 16.00087 6.399936 16.00087 16.00087v841.600805c0 9.598872-6.399936 15.998808-16.00087 15.998808zM140.800645 992.000322H992.000322V182.399194H140.800645V992.000322z" fill="#193651" p-id="10864"></path><path d="M188.960005 230.288367h755.200644v713.600032H188.960005zM124.799774 16.00087h883.199356v156.799452H124.799774z" fill="#FFFFFF" p-id="10865"></path><path d="M1007.99913 188.79913H124.799774c-9.600935 0-16.00087-6.399936-16.00087-16.00087V16.00087C108.800967 6.399936 115.200902 0 124.799774 0h883.199356c9.600935 0 16.00087 6.399936 16.00087 16.00087v156.799452c0 9.598872-6.399936 15.998808-16.00087 15.998808zM140.800645 156.799452H992.000322V31.999678H140.800645v124.799774z" fill="#193651" p-id="10866"></path><path d="M16.00087 304.000032v359.998953h79.998163v142.401144l240.000677-142.401144H591.999194V304.000032z" fill="#FFFFFF" p-id="10867"></path><path d="M95.999033 822.398937c-3.200999 0-4.799436 0-8.000435-1.6005-4.799436-3.200999-8.000435-9.600935-8.000435-14.400371v-124.799774H16.00087c-9.600935 0-16.00087-6.399936-16.00087-16.00087v-361.59739c0-9.600935 6.399936-16.00087 16.00087-16.00087H591.999194c9.600935 0 16.00087 6.399936 16.00087 16.00087v359.998953c0 9.600935-6.399936 16.00087-16.00087 16.00087H340.799146L103.999468 819.2c-1.6005 1.6005-4.799436 3.198937-8.000435 3.198937z m-63.999355-174.39876h63.999355c9.600935 0 16.00087 6.399936 16.00087 16.00087v113.600403l215.999372-126.400274c3.200999-1.6005 4.799436-1.6005 8.000435-1.600499h240.000677V320.000902H31.999678v327.999275z" fill="#193651" p-id="10868"></path><path d="M160.000451 599.999629H80.000226V367.999388H527.999839v232.000241H318.400403l-158.399952 94.400597z" fill="#FDBF5E" p-id="10869"></path><path d="M668.800483 270.399855h73.60029v73.60029h-73.60029z" fill="#E1E6E9" p-id="10870"></path><path d="M796.799194 291.200161h102.398969v31.999678h-102.398969z" fill="#193651" p-id="10871"></path><path d="M668.800483 411.2005h73.60029v73.60029h-73.60029z" fill="#E1E6E9" p-id="10872"></path><path d="M796.799194 430.400306h102.398969v31.999678h-102.398969z" fill="#193651" p-id="10873"></path><path d="M668.800483 550.400645h73.60029v73.60029h-73.60029z" fill="#E1E6E9" p-id="10874"></path><path d="M796.799194 571.198888h102.398969v31.999678h-102.398969z" fill="#193651" p-id="10875"></path><path d="M668.800483 691.199227h73.60029v73.60029h-73.60029z" fill="#E1E6E9" p-id="10876"></path><path d="M796.799194 711.999533h102.398969v31.999677h-102.398969z" fill="#193651" p-id="10877"></path><path d="M668.800483 830.399372h73.60029v73.60029h-73.60029z" fill="#E1E6E9" p-id="10878"></path><path d="M796.799194 851.199678h102.398969v31.999677h-102.398969zM268.799355 851.199678h307.198969v31.999677H268.799355zM268.799355 771.199452h307.198969v31.999678H268.799355z" fill="#193651" p-id="10879"></path><path d="M388.799694 462.399984h31.999678v31.999678h-31.999678zM287.999162 462.399984h31.999678v31.999678h-31.999678zM187.200693 462.399984h31.999678v31.999678H187.200693z" fill="#193651" p-id="10880"></path><path d="M915.199033 94.400596m-25.599742 0a25.599742 25.599742 0 1 0 51.199484 0 25.599742 25.599742 0 1 0-51.199484 0Z" fill="#F16051" p-id="10881"></path><path d="M822.398937 94.400596m-25.599743 0a25.599742 25.599742 0 1 0 51.199485 0 25.599742 25.599742 0 1 0-51.199485 0Z" fill="#F16051" p-id="10882"></path><path d="M729.59884 94.400596m-25.599742 0a25.599742 25.599742 0 1 0 51.199484 0 25.599742 25.599742 0 1 0-51.199484 0Z" fill="#F16051" p-id="10883"></path></svg>