<?xml version="1.0" standalone="no"?><!DOCTYPE svg PUBLIC "-//W3C//DTD SVG 1.1//EN" "http://www.w3.org/Graphics/SVG/1.1/DTD/svg11.dtd"><svg t="1592750081612" class="icon" viewBox="0 0 1024 1024" version="1.1" xmlns="http://www.w3.org/2000/svg" p-id="1514" xmlns:xlink="http://www.w3.org/1999/xlink" width="200" height="200"><defs><style type="text/css"></style></defs><path d="M950.857143 292.571429a219.428571 219.428571 0 0 0-219.428572-219.428572H292.571429a219.428571 219.428571 0 0 0-219.428572 219.428572h877.714286z m0 73.142857H73.142857v365.714285a219.428571 219.428571 0 0 0 219.428572 219.428572h438.857142a219.428571 219.428571 0 0 0 219.428572-219.428572V365.714286zM292.571429 0h438.857142a292.571429 292.571429 0 0 1 292.571429 292.571429v438.857142a292.571429 292.571429 0 0 1-292.571429 292.571429H292.571429a292.571429 292.571429 0 0 1-292.571429-292.571429V292.571429a292.571429 292.571429 0 0 1 292.571429-292.571429zM182.857143 585.142857V438.857143h146.285714v146.285714h-146.285714z m0 219.428572V658.285714h146.285714v146.285715h-146.285714zM438.857143 585.142857V438.857143h146.285714v146.285714H438.857143z m0 219.428572V658.285714h146.285714v146.285715H438.857143z m256-219.428572V438.857143h146.285714v146.285714h-146.285714z m0 219.428572V658.285714h146.285714v146.285715h-146.285714z" p-id="1515"></path></svg>