<?xml version="1.0" standalone="no"?><!DOCTYPE svg PUBLIC "-//W3C//DTD SVG 1.1//EN" "http://www.w3.org/Graphics/SVG/1.1/DTD/svg11.dtd"><svg t="1592750427786" class="icon" viewBox="0 0 1024 1024" version="1.1" xmlns="http://www.w3.org/2000/svg" p-id="2287" xmlns:xlink="http://www.w3.org/1999/xlink" width="200" height="200"><defs><style type="text/css"></style></defs><path d="M337.067 802.133a34.133 34.133 0 1 1-48.214-48.213L704 338.773a34.133 34.133 0 1 0-48.213-48.64L240.64 705.28A102.4 102.4 0 0 0 384 850.347L799.147 435.2a170.667 170.667 0 0 0-241.494-241.493l-394.24 395.946A34.133 34.133 0 0 1 115.2 541.44L512 145.493a238.933 238.933 0 1 1 337.92 337.92L434.773 898.56a170.667 170.667 0 0 1-242.346-241.493L607.573 241.92a102.4 102.4 0 1 1 144.64 144.64z" p-id="2288"></path></svg>