<?xml version="1.0" standalone="no"?><!DOCTYPE svg PUBLIC "-//W3C//DTD SVG 1.1//EN" "http://www.w3.org/Graphics/SVG/1.1/DTD/svg11.dtd"><svg t="1592749849018" class="icon" viewBox="0 0 1024 1024" version="1.1" xmlns="http://www.w3.org/2000/svg" p-id="1542" xmlns:xlink="http://www.w3.org/1999/xlink" width="200" height="200"><defs><style type="text/css"></style></defs><path d="M615.3 758.6c-96.7-1.1-174.4-80.6-173.4-177.2S522.5 407 619.2 408.1s174.4 80.6 173.3 177.2c-1.1 96.6-80.6 174.4-177.2 173.3z m3.5-320.1c-79.9-0.9-145.5 63.4-146.4 143.2s63.4 145.5 143.2 146.4S761.2 664.8 762.1 585c0.8-79.9-63.4-145.6-143.3-146.5z" p-id="1543"></path><path d="M916.3 847.8l-751.7-8.3c-38.5-0.4-69.4-32.1-69-70.5l2.8-256.8c0.1-9.6 8-17.3 17.6-17.2 9.6 0.1 17.3 8 17.2 17.6l-2.8 256.8c-0.2 19.3 15.3 35.1 34.6 35.3l751.7 8.3c19.3 0.2 35.1-15.3 35.3-34.6l0.8-75.6c-48.5-17.1-82.1-64-81.5-116.5 0.6-52.4 35.2-98.6 84-114.7l0.8-75.6c0.2-19.3-15.3-35.1-34.6-35.3l-752.2-8.3c-19-0.2-34.6 15.1-34.8 34l-0.7 63.1c-0.1 9.6-8 17.3-17.6 17.2-9.6-0.1-17.3-8-17.2-17.6l0.7-63.1c0.4-38.2 31.8-68.9 70-68.5l752.2 8.3c38.5 0.4 69.4 32.1 69 70.5l-1.1 102.9L976 502c-40.1 8.1-69.5 43.6-69.9 84.6s28.2 77.1 68 86.1l13.7 3.1-1.1 102.9c-0.3 38.6-31.9 69.5-70.4 69.1z" p-id="1544"></path><path d="M67.5 461.9c-7.9-0.1-15-5.6-16.8-13.7l-13.5-61.7c-8.1-37.3 15.6-74.3 52.9-82.4l735-160.4c37.6-8.2 74.8 15.7 83 53.3L930 297.6l-12.8 5.8c-14.4 6.5-26.8 16.9-35.8 30-5.4 7.9-16.3 9.9-24.2 4.5-7.9-5.4-9.9-16.3-4.5-24.2 9.9-14.4 22.7-26.4 37.5-35.4l-16.1-73.8c-4.1-18.8-22.8-30.8-41.6-26.7l-735 160.4c-18.5 4-30.3 22.4-26.3 41l13.5 61.6c2 9.4-3.9 18.7-13.3 20.7-1.3 0.3-2.6 0.5-3.9 0.4z" p-id="1545"></path><path d="M271.3 440.5c-9.6-0.1-17.3-8-17.2-17.6l0.3-31.5c0.1-9.6 8-17.3 17.6-17.2 9.6 0.1 17.3 8 17.2 17.6l-0.3 31.5c-0.1 9.6-8 17.3-17.6 17.2zM270.3 526.6c-9.6-0.1-17.3-8-17.2-17.6l0.3-31.5c0.1-9.6 8-17.3 17.6-17.2 9.6 0.1 17.3 8 17.2 17.6l-0.3 31.5c-0.1 9.6-8 17.3-17.6 17.2zM269.4 612.8c-9.6-0.1-17.3-8-17.2-17.6l0.3-31.5c0.1-9.6 8-17.3 17.6-17.2s17.3 8 17.2 17.6l-0.3 31.5c-0.1 9.6-8 17.3-17.6 17.2zM268.4 699c-9.6-0.1-17.3-8-17.2-17.6l0.3-31.5c0.1-9.6 8-17.3 17.6-17.2 9.6 0.1 17.3 8 17.2 17.6l-0.3 31.5c-0.1 9.6-8 17.3-17.6 17.2zM267.5 785.2c-9.6-0.1-17.3-8-17.2-17.6l0.3-31.5c0.1-9.6 8-17.3 17.6-17.2s17.3 8 17.2 17.6l-0.3 31.5c-0.1 9.6-8 17.3-17.6 17.2z" p-id="1546"></path><path d="M611.9 565.8c-4.4 0-8.6-2.3-11-6.3l-31.4-51.7c-3.7-6.2-1.8-14.2 4.4-17.9 6.2-3.7 14.2-1.8 17.9 4.4l31.4 51.7c3.7 6.2 1.8 14.2-4.4 17.9-2.2 1.3-4.6 1.9-6.9 1.9z" p-id="1547"></path><path d="M621.9 565.9c-2.4 0-4.7-0.7-6.9-2-6.1-3.9-7.9-11.9-4-18l32.5-51c3.9-6.1 11.9-7.9 18-4 6.1 3.9 7.9 11.9 4 18l-32.5 51c-2.4 3.9-6.7 6.1-11.1 6z" p-id="1548"></path><path d="M664.4 585.1l-94.4-1c-7.2-0.1-13-6-12.9-13.2s6-13 13.2-12.9l94.4 1c7.2 0.1 13 6 12.9 13.2-0.1 7.2-6 13-13.2 12.9zM663.9 635.1l-94.4-1c-7.2-0.1-13-6-12.9-13.2 0.1-7.2 6-13 13.2-12.9l94.4 1c7.2 0.1 13 6 12.9 13.2-0.1 7.2-6 13-13.2 12.9z" p-id="1549"></path><path d="M616.2 678.3c-7.2-0.1-13-6-12.9-13.2l1.1-99.9c0.1-7.2 6-13 13.2-12.9 7.2 0.1 13 6 12.9 13.2l-1.1 99.9c-0.1 7.2-6 13-13.2 12.9z" p-id="1550"></path></svg>