<?xml version="1.0" standalone="no"?><!DOCTYPE svg PUBLIC "-//W3C//DTD SVG 1.1//EN" "http://www.w3.org/Graphics/SVG/1.1/DTD/svg11.dtd"><svg t="1592750547861" class="icon" viewBox="0 0 1024 1024" version="1.1" xmlns="http://www.w3.org/2000/svg" p-id="1614" xmlns:xlink="http://www.w3.org/1999/xlink" width="200" height="200"><defs><style type="text/css"></style></defs><path d="M512 74.436149c249.280855 0 452.08715 202.806296 452.08715 452.08715 0 249.280855-202.806296 452.08715-452.08715 452.08715-85.060197 0-167.905168-23.734575-239.628794-68.649434C139.344562 826.641354 59.91285 683.307123 59.91285 526.5233 59.91285 277.242445 262.719145 74.436149 512 74.436149M512 29.227434c-274.642944 0-497.295865 222.652922-497.295865 497.295865 0 177.805876 93.333392 333.866361 233.683848 421.752103 76.425333 47.853425 166.797554 75.543763 263.612017 75.543763 274.642944 0 497.295865-222.652922 497.295865-497.295865C1009.295865 251.880356 786.642944 29.227434 512 29.227434L512 29.227434z" p-id="1615"></path><path d="M503.523366 549.127657c-12.50021 0-22.604358-10.126752-22.604358-22.604358l0-259.950111c0-12.477605 10.104148-22.604358 22.604358-22.604358s22.604358 10.126752 22.604358 22.604358l0 259.950111C526.127723 539.023509 516.023576 549.127657 503.523366 549.127657z" p-id="1616"></path><path d="M839.763184 549.127657 503.523366 549.127657c-12.50021 0-22.604358-10.126752-22.604358-22.604358s10.104148-22.604358 22.604358-22.604358L839.763184 503.918942c12.50021 0 22.604358 10.126752 22.604358 22.604358S852.263394 549.127657 839.763184 549.127657z" p-id="1617"></path></svg>