<?xml version="1.0" standalone="no"?><!DOCTYPE svg PUBLIC "-//W3C//DTD SVG 1.1//EN" "http://www.w3.org/Graphics/SVG/1.1/DTD/svg11.dtd"><svg t="1592750381386" class="icon" viewBox="0 0 1024 1024" version="1.1" xmlns="http://www.w3.org/2000/svg" p-id="1549" xmlns:xlink="http://www.w3.org/1999/xlink" width="200" height="200"><defs><style type="text/css"></style></defs><path d="M1015.467 606.72a242.773 242.773 0 0 1-242.774 242.773 34.133 34.133 0 0 1 0-68.266 174.507 174.507 0 0 0 29.44-346.454l-20.053-3.413-6.4-19.2a279.04 279.04 0 0 0-527.787 0l-6.4 19.2-20.053 3.413a174.507 174.507 0 0 0 29.44 346.454 34.133 34.133 0 1 1 0 68.266 242.773 242.773 0 0 1-60.587-477.866 347.307 347.307 0 0 1 642.987 0 242.773 242.773 0 0 1 182.187 235.093zM516.693 411.307a34.133 34.133 0 0 1 29.44 16.64l168.534 169.386a34.133 34.133 0 1 1-48.214 48.214L551.68 529.067V834.56a34.133 34.133 0 0 1-68.267 0V526.08l-117.76 117.76a34.133 34.133 0 0 1-48.64-46.507L491.52 422.827a34.133 34.133 0 0 1 25.173-11.52z" p-id="1550"></path></svg>