<?xml version="1.0" standalone="no"?><!DOCTYPE svg PUBLIC "-//W3C//DTD SVG 1.1//EN" "http://www.w3.org/Graphics/SVG/1.1/DTD/svg11.dtd"><svg t="1592301644467" class="icon" viewBox="0 0 1024 1024" version="1.1" xmlns="http://www.w3.org/2000/svg" p-id="2319" xmlns:xlink="http://www.w3.org/1999/xlink" width="200" height="200"><defs><style type="text/css"></style></defs><path d="M340.954172 541.097707C265.372714 486.967445 216.135217 398.419914 216.135217 298.418616 216.135217 133.731882 349.671188 0 514.498858 0S812.862499 133.621932 812.862499 298.308667c0 100.745957-50.014142 189.907208-126.560159 243.955507 181.482059 65.771941 316.140517 231.391249 335.168821 432.515331 2.338931 24.730698-15.812773 46.676668-40.543471 49.016598-24.730698 2.338931-46.675668-15.812773-49.015599-40.543471C911.531406 767.82009 729.974381 601.724999 512 601.724999c-217.435627 0-398.709781 165.298455-419.773155 380.081294-2.423892 24.722701-24.431834 42.79944-49.154535 40.374548-24.722701-2.423892-42.79944-24.431834-40.374548-49.154535 19.767966-201.575875 155.686848-367.162199 338.25641-431.928599z m173.544686-36.463336c113.924934 0 206.364687-92.421761 206.364687-206.325704 0-113.903943-92.329803-206.325705-206.364687-206.325705s-206.364687 92.421761-206.364687 206.325705c0 113.903943 92.329803 206.325705 206.364687 206.325704z" p-id="2320"></path></svg>