<?xml version="1.0" standalone="no"?><!DOCTYPE svg PUBLIC "-//W3C//DTD SVG 1.1//EN" "http://www.w3.org/Graphics/SVG/1.1/DTD/svg11.dtd"><svg t="1592749799094" class="icon" viewBox="0 0 1024 1024" version="1.1" xmlns="http://www.w3.org/2000/svg" p-id="1273" xmlns:xlink="http://www.w3.org/1999/xlink" width="200" height="200"><defs><style type="text/css"></style></defs><path d="M509.3 902.2c-209.5 0-475.6-137.1-475.9-291.1-0.1-41.8 20.6-83.8 61.4-124.7 91.6-91.8 277.5-166.5 414.4-166.5 94.7 0 213.5 33 310 86.1C927.4 465.5 989.6 540.2 990 611c0.2 39.3-21.4 81.8-62.4 123.1-95.4 95.8-275.3 168.1-418.3 168.1z m0-543.3c-125.8 0-302.9 71-386.8 155-33.3 33.3-50.1 66-50 97.1 0.1 58.2 52.9 121.1 144.8 172.4 88 49.2 199.9 79.7 292.1 79.7 133.8 0 301.8-67.4 390.7-156.7 33.6-33.7 51.2-66.7 51.1-95.3-0.9-121.7-260-252.2-441.9-252.2z" p-id="1274"></path><path d="M511.7 814.3c-112.1 0-203.3-91.2-203.3-203.3s91.2-203.3 203.3-203.3S715 499 715 611.1s-91.2 203.2-203.3 203.2z m0-367.5c-90.6 0-164.2 73.7-164.2 164.2s73.7 164.2 164.2 164.2S675.9 701.5 675.9 611s-73.6-164.2-164.2-164.2z" p-id="1275"></path><path d="M421.1 580.7c-2.9 0-5.8-0.6-8.5-2-9.7-4.7-13.7-16.4-9-26.1 19.3-39.6 58.6-64.2 102.6-64.2 10.8 0 19.5 8.7 19.5 19.5s-8.7 19.5-19.5 19.5c-29 0-54.8 16.2-67.5 42.2-3.4 7-10.4 11.1-17.6 11.1zM245.1 356.3c-5 0-10-1.9-13.8-5.7l-72.7-72.7c-7.6-7.6-7.6-20 0-27.6 7.6-7.6 20-7.6 27.6 0l72.7 72.7c7.6 7.6 7.6 20 0 27.6-3.8 3.8-8.8 5.7-13.8 5.7zM382.5 293c-7.6 0-14.9-4.5-18-12L320 174.5c-4.2-9.9 0.5-21.4 10.5-25.5 9.9-4.1 21.4 0.5 25.5 10.5L400.5 266c4.2 9.9-0.5 21.4-10.5 25.5-2.5 1.1-5 1.5-7.5 1.5zM778.3 358.9c-5 0-10-1.9-13.8-5.7-7.6-7.6-7.6-20 0-27.6l72.7-72.7c7.6-7.6 20-7.6 27.6 0 7.6 7.6 7.6 20 0 27.6l-72.7 72.7c-3.8 3.8-8.8 5.7-13.8 5.7zM640.9 295.7c-2.5 0-5.1-0.5-7.5-1.5-9.9-4.2-14.6-15.6-10.5-25.5l44.5-106.5c4.1-9.9 15.6-14.6 25.5-10.5 9.9 4.2 14.6 15.6 10.5 25.5l-44.5 106.5c-3.1 7.5-10.4 12-18 12zM510 275.2h-0.6c-10.8-0.3-19.2-9.3-18.9-20.1l3.3-111.9c0.3-10.8 9.4-19.3 20.1-18.9 10.8 0.3 19.2 9.3 18.9 20.1l-3.3 111.9c-0.3 10.5-9 18.9-19.5 18.9z" p-id="1276"></path></svg>