<?xml version="1.0" standalone="no"?><!DOCTYPE svg PUBLIC "-//W3C//DTD SVG 1.1//EN" "http://www.w3.org/Graphics/SVG/1.1/DTD/svg11.dtd"><svg t="1592749997609" class="icon" viewBox="0 0 1024 1024" version="1.1" xmlns="http://www.w3.org/2000/svg" p-id="2224" xmlns:xlink="http://www.w3.org/1999/xlink" width="200" height="200"><defs><style type="text/css"></style></defs><path d="M885.7 901.8H138.5c-44.3 0-80.3-46-80.3-102.5V434.7c0-10 8.1-18.1 18.1-18.1s18.1 8.1 18.1 18.1v364.6c0 35.9 20.2 66.3 44.1 66.3h747.2c23.9 0 44.1-30.4 44.1-66.3V226.9c0-35.9-20.2-66.3-44.1-66.3H138.5c-23.9 0-44.1 30.4-44.1 66.3v95.4c0 10-8.1 18.1-18.1 18.1s-18.1-8.1-18.1-18.1v-95.4c0-56.5 36-102.5 80.3-102.5h747.2c44.3 0 80.3 46 80.3 102.5v572.3c0 56.6-36 102.6-80.3 102.6z" p-id="2225"></path><path d="M551.9 632.7H58.2v-194H552c53.5 0 97 43.5 97 97-0.1 53.5-43.6 97-97.1 97zM94.4 596.5h457.5c33.5 0 60.8-27.3 60.8-60.8s-27.3-60.8-60.8-60.8H94.4v121.6zM706.6 338.4h-67.1c-28.7 0-52.1-23.4-52.1-52.1V124.4h171.2v161.9c0.1 28.7-23.3 52.1-52 52.1z m-82.9-177.8v125.6c0 8.7 7.1 15.8 15.8 15.8h67.1c8.7 0 15.8-7.1 15.8-15.8V160.6h-98.7z" p-id="2226"></path></svg>